<?xml version="1.0" encoding="utf-8" standalone="no"?>
<!DOCTYPE svg PUBLIC "-//W3C//DTD SVG 1.1//EN"
  "http://www.w3.org/Graphics/SVG/1.1/DTD/svg11.dtd">
<!-- Created with matplotlib (http://matplotlib.org/) -->
<svg height="864pt" version="1.1" viewBox="0 0 1152 864" width="1152pt" xmlns="http://www.w3.org/2000/svg" xmlns:xlink="http://www.w3.org/1999/xlink">
 <defs>
  <style type="text/css">
*{stroke-linecap:butt;stroke-linejoin:round;stroke-miterlimit:100000;}
  </style>
 </defs>
 <g id="figure_1">
  <g id="patch_1">
   <path d="M 0 864 
L 1152 864 
L 1152 0 
L 0 0 
z
" style="fill:#ffffff;"/>
  </g>
  <g id="axes_1">
   <g id="patch_2">
    <path d="M 144 756 
L 1036.8 756 
L 1036.8 86.4 
L 144 86.4 
z
" style="fill:#ffffff;"/>
   </g>
   <g id="line2d_1">
    <path clip-path="url(#pc204646d11)" d="M 144 714.892027 
L 156.4 714.892027 
L 160.533333 710.881003 
L 164.666667 714.892027 
L 259.733333 714.892027 
L 263.866667 713.409656 
L 268 714.892027 
L 288.666667 714.892027 
L 292.8 713.858088 
L 296.933333 714.892027 
L 404.4 714.892027 
L 408.533333 712.298742 
L 412.666667 714.892027 
L 449.866667 714.892027 
L 454 714.289625 
L 458.133333 714.892027 
L 507.733333 714.892027 
L 511.866667 713.290408 
L 516 714.892027 
L 544.933333 714.892027 
L 549.066667 712.623855 
L 553.2 714.892027 
L 557.333333 711.524 
L 561.466667 714.892027 
L 602.8 714.892027 
L 606.933333 712.802329 
L 611.066667 714.892027 
L 751.6 714.892027 
L 755.733333 714.684883 
L 759.866667 714.892027 
L 792.933333 714.892027 
L 797.066667 713.311932 
L 801.2 714.892027 
L 805.333333 713.568887 
L 809.466667 713.120094 
L 813.6 714.892027 
L 834.266667 714.892027 
L 838.4 714.365511 
L 842.533333 714.892027 
L 892.133333 714.892027 
L 896.266667 713.174809 
L 900.4 713.591531 
L 904.533333 712.115224 
L 908.666667 714.892027 
L 937.6 714.892027 
L 941.733333 714.01435 
L 945.866667 711.677876 
L 950 714.892027 
L 999.6 714.892027 
L 1003.733333 714.336416 
L 1007.866667 714.892027 
L 1032.666667 714.892027 
L 1032.666667 714.892027 
" style="fill:none;stroke:#0000ff;stroke-linecap:square;"/>
   </g>
   <g id="line2d_2">
    <path clip-path="url(#pc204646d11)" d="M 144 677.352089 
L 148.133333 667.004715 
L 152.266667 672.62386 
L 156.4 677.352089 
L 164.666667 677.352089 
L 168.8 675.667703 
L 172.933333 677.352089 
L 177.066667 677.352089 
L 181.2 672.013474 
L 185.333333 675.958394 
L 189.466667 666.236246 
L 193.6 677.352089 
L 197.733333 676.024453 
L 201.866667 674.430386 
L 206 665.449296 
L 210.133333 677.352089 
L 214.266667 644.711136 
L 218.4 673.786145 
L 222.533333 677.352089 
L 230.8 677.352089 
L 234.933333 674.439811 
L 239.066667 677.352089 
L 243.2 677.352089 
L 247.333333 664.615534 
L 251.466667 674.369498 
L 255.6 664.351374 
L 259.733333 666.170724 
L 263.866667 669.244873 
L 268 663.847774 
L 272.133333 677.352089 
L 276.266667 677.115044 
L 280.4 677.352089 
L 292.8 677.352089 
L 296.933333 670.685845 
L 301.066667 664.728016 
L 305.2 666.419377 
L 309.333333 669.766483 
L 313.466667 656.765637 
L 317.6 677.352089 
L 346.533333 677.352089 
L 350.666667 666.533622 
L 354.8 676.169395 
L 358.933333 672.551631 
L 363.066667 656.41318 
L 367.2 677.0097 
L 371.333333 677.352089 
L 387.866667 677.352089 
L 392 651.348213 
L 396.133333 669.442558 
L 400.266667 662.940783 
L 404.4 676.311084 
L 408.533333 662.782581 
L 412.666667 670.597192 
L 416.8 677.352089 
L 425.066667 677.352089 
L 429.2 677.194439 
L 433.333333 677.352089 
L 437.466667 677.352089 
L 441.6 673.16102 
L 445.733333 668.481581 
L 449.866667 677.352089 
L 454 677.352089 
L 458.133333 673.713911 
L 462.266667 677.352089 
L 466.4 677.032731 
L 470.533333 677.352089 
L 474.666667 672.886469 
L 478.8 675.905602 
L 482.933333 676.94491 
L 487.066667 671.095258 
L 491.2 677.352089 
L 495.333333 677.352089 
L 499.466667 667.136242 
L 503.6 670.099057 
L 507.733333 669.84129 
L 511.866667 675.642116 
L 516 670.983026 
L 520.133333 672.882052 
L 524.266667 677.352089 
L 540.8 677.352089 
L 544.933333 673.625122 
L 549.066667 677.352089 
L 553.2 656.239917 
L 557.333333 668.911221 
L 561.466667 665.358235 
L 565.6 675.317137 
L 569.733333 677.352089 
L 573.866667 670.004801 
L 578 677.352089 
L 586.266667 677.352089 
L 590.4 672.507552 
L 594.533333 677.352089 
L 598.666667 661.389759 
L 602.8 677.352089 
L 606.933333 657.331138 
L 611.066667 671.638716 
L 615.2 676.723447 
L 619.333333 671.830892 
L 623.466667 677.352089 
L 627.6 676.472487 
L 631.733333 677.352089 
L 635.866667 677.133998 
L 640 652.4242 
L 644.133333 666.495401 
L 648.266667 670.217592 
L 652.4 677.352089 
L 656.533333 662.962269 
L 660.666667 677.352089 
L 673.066667 677.292639 
L 677.2 674.485121 
L 681.333333 677.352089 
L 685.466667 666.339877 
L 689.6 670.311517 
L 693.733333 667.412804 
L 697.866667 677.352089 
L 702 661.525825 
L 706.133333 670.02463 
L 710.266667 651.949784 
L 714.4 677.064346 
L 718.533333 677.352089 
L 722.666667 669.268737 
L 726.8 677.352089 
L 730.933333 674.738564 
L 735.066667 677.352089 
L 739.2 662.370924 
L 743.333333 660.755711 
L 747.466667 669.878452 
L 751.6 671.468389 
L 755.733333 656.53435 
L 759.866667 677.352089 
L 784.666667 677.352089 
L 788.8 652.464292 
L 792.933333 671.422923 
L 797.066667 667.185699 
L 801.2 666.611518 
L 805.333333 667.325808 
L 809.466667 655.581512 
L 813.6 677.352089 
L 834.266667 677.352089 
L 838.4 657.266547 
L 842.533333 660.708076 
L 846.666667 649.137697 
L 850.8 675.979352 
L 854.933333 670.337581 
L 859.066667 655.542026 
L 863.2 677.352089 
L 883.866667 677.352089 
L 888 665.786668 
L 892.133333 677.352089 
L 896.266667 669.077325 
L 900.4 656.527358 
L 904.533333 677.352089 
L 908.666667 652.588483 
L 912.8 677.352089 
L 916.933333 676.752529 
L 921.066667 677.352089 
L 925.2 677.352089 
L 929.333333 676.287713 
L 933.466667 677.352089 
L 937.6 657.569172 
L 941.733333 677.352089 
L 945.866667 671.907567 
L 950 659.04963 
L 954.133333 649.622111 
L 958.266667 669.237204 
L 962.4 677.352089 
L 966.533333 673.536327 
L 970.666667 677.352089 
L 999.6 677.352089 
L 1003.733333 665.504696 
L 1007.866667 653.239966 
L 1012 667.605326 
L 1016.133333 671.130915 
L 1020.266667 677.09233 
L 1024.4 675.569212 
L 1028.533333 677.352089 
L 1032.666667 677.352089 
L 1032.666667 677.352089 
" style="fill:none;stroke:#008000;stroke-linecap:square;"/>
   </g>
   <g id="line2d_3">
    <path clip-path="url(#pc204646d11)" d="M 144 635.761313 
L 148.133333 623.448873 
L 152.266667 624.10048 
L 156.4 629.228911 
L 160.533333 635.761313 
L 164.666667 620.15588 
L 168.8 632.862991 
L 172.933333 635.761313 
L 181.2 635.761313 
L 185.333333 628.53206 
L 189.466667 635.761313 
L 193.6 623.000141 
L 197.733333 635.761313 
L 201.866667 627.625324 
L 206 634.634925 
L 210.133333 626.125005 
L 214.266667 623.711015 
L 218.4 635.671751 
L 222.533333 630.005865 
L 226.666667 635.761313 
L 230.8 632.065464 
L 234.933333 634.086764 
L 239.066667 635.555185 
L 243.2 635.761313 
L 247.333333 629.373014 
L 251.466667 624.536623 
L 255.6 635.761313 
L 259.733333 628.366123 
L 263.866667 621.799631 
L 268 624.871077 
L 272.133333 634.1335 
L 276.266667 635.761313 
L 280.4 634.162833 
L 284.533333 634.609464 
L 288.666667 634.473387 
L 292.8 635.761313 
L 296.933333 635.761313 
L 301.066667 621.432829 
L 305.2 634.083639 
L 309.333333 625.968105 
L 313.466667 631.143745 
L 317.6 629.916889 
L 321.733333 630.631811 
L 325.866667 635.761313 
L 330 633.828762 
L 334.133333 634.229691 
L 338.266667 633.203437 
L 342.4 635.761313 
L 358.933333 635.761313 
L 363.066667 620.289767 
L 367.2 623.152989 
L 371.333333 626.916387 
L 375.466667 626.786511 
L 379.6 629.643709 
L 383.733333 633.587287 
L 387.866667 635.761313 
L 408.533333 635.761313 
L 412.666667 630.736492 
L 416.8 632.437238 
L 420.933333 627.961019 
L 425.066667 633.543493 
L 429.2 630.527082 
L 433.333333 633.064976 
L 437.466667 634.986157 
L 441.6 627.018509 
L 445.733333 635.761313 
L 449.866667 624.218461 
L 454 619.428392 
L 458.133333 635.761313 
L 462.266667 631.90541 
L 466.4 635.179868 
L 470.533333 631.135414 
L 474.666667 635.761313 
L 478.8 635.761313 
L 482.933333 629.734688 
L 487.066667 634.985885 
L 491.2 635.761313 
L 495.333333 632.573942 
L 499.466667 634.781031 
L 503.6 634.940169 
L 507.733333 635.761313 
L 511.866667 624.491472 
L 516 630.198003 
L 520.133333 633.579332 
L 524.266667 633.996191 
L 528.4 630.865292 
L 532.533333 631.201812 
L 536.666667 635.761313 
L 540.8 627.573604 
L 544.933333 633.44678 
L 549.066667 621.049192 
L 553.2 635.761313 
L 557.333333 635.761313 
L 561.466667 630.708282 
L 565.6 635.761313 
L 569.733333 634.695753 
L 573.866667 635.761313 
L 578 631.365495 
L 582.133333 624.343564 
L 586.266667 632.734379 
L 590.4 631.558109 
L 594.533333 631.388655 
L 598.666667 631.038862 
L 602.8 630.494455 
L 606.933333 633.678016 
L 611.066667 633.345839 
L 615.2 634.42701 
L 619.333333 634.574123 
L 623.466667 635.761313 
L 627.6 635.50304 
L 631.733333 634.986082 
L 635.866667 635.472467 
L 640 633.00022 
L 644.133333 622.143474 
L 648.266667 619.853345 
L 652.4 635.761313 
L 656.533333 620.846357 
L 660.666667 631.13126 
L 664.8 635.761313 
L 673.066667 635.761313 
L 677.2 634.345191 
L 681.333333 635.761313 
L 685.466667 635.761313 
L 689.6 621.100809 
L 693.733333 635.145598 
L 697.866667 629.616731 
L 702 622.236298 
L 706.133333 635.761313 
L 718.533333 635.761313 
L 722.666667 634.545843 
L 726.8 635.761313 
L 730.933333 622.093646 
L 735.066667 626.411348 
L 739.2 614.885464 
L 743.333333 623.437685 
L 747.466667 624.251007 
L 751.6 632.501442 
L 755.733333 617.613987 
L 759.866667 630.311055 
L 764 635.761313 
L 768.133333 635.290507 
L 772.266667 635.086928 
L 776.4 635.530166 
L 780.533333 635.761313 
L 784.666667 634.657582 
L 788.8 616.808331 
L 792.933333 628.734714 
L 797.066667 619.641238 
L 801.2 631.796437 
L 805.333333 621.064154 
L 809.466667 621.188597 
L 813.6 635.761313 
L 817.733333 634.510864 
L 821.866667 635.54765 
L 826 635.716982 
L 830.133333 635.345457 
L 834.266667 635.761313 
L 838.4 624.785131 
L 842.533333 625.91116 
L 846.666667 630.055131 
L 850.8 627.30142 
L 854.933333 623.253497 
L 859.066667 634.726476 
L 863.2 635.667357 
L 867.333333 635.201556 
L 871.466667 634.556246 
L 875.6 634.833342 
L 879.733333 635.761313 
L 883.866667 635.088635 
L 888 626.577117 
L 892.133333 628.86015 
L 896.266667 618.472266 
L 900.4 634.910535 
L 904.533333 631.280181 
L 908.666667 632.810661 
L 912.8 635.761313 
L 916.933333 633.787767 
L 921.066667 635.761313 
L 925.2 632.472149 
L 929.333333 635.761313 
L 933.466667 634.20803 
L 937.6 630.942278 
L 941.733333 632.162735 
L 945.866667 633.158077 
L 950 625.499215 
L 954.133333 608.908816 
L 958.266667 631.260985 
L 966.533333 635.057073 
L 970.666667 634.545476 
L 974.8 635.761313 
L 983.066667 635.761313 
L 987.2 630.220525 
L 991.333333 635.761313 
L 995.466667 628.057181 
L 999.6 635.761313 
L 1003.733333 635.761313 
L 1007.866667 620.352715 
L 1012 635.761313 
L 1016.133333 633.218089 
L 1020.266667 635.586239 
L 1024.4 634.793423 
L 1028.533333 632.452937 
L 1032.666667 635.761313 
L 1032.666667 635.761313 
" style="fill:none;stroke:#ff0000;stroke-linecap:square;"/>
   </g>
   <g id="line2d_4">
    <path clip-path="url(#pc204646d11)" d="M 144 579.0253 
L 148.133333 594.58186 
L 152.266667 594.58186 
L 156.4 589.108711 
L 160.533333 563.518885 
L 164.666667 594.58186 
L 168.8 594.58186 
L 172.933333 585.138982 
L 181.2 593.187531 
L 185.333333 594.58186 
L 189.466667 593.447536 
L 193.6 566.852861 
L 197.733333 594.58186 
L 201.866667 589.651975 
L 206 592.44449 
L 210.133333 571.101442 
L 214.266667 546.75 
L 218.4 594.58186 
L 222.533333 587.977417 
L 226.666667 593.371155 
L 230.8 590.92744 
L 234.933333 594.58186 
L 251.466667 594.58186 
L 255.6 590.652394 
L 259.733333 588.768742 
L 263.866667 562.614126 
L 268 593.176379 
L 272.133333 592.133689 
L 276.266667 590.45909 
L 280.4 594.58186 
L 284.533333 594.066587 
L 288.666667 594.58186 
L 292.8 587.944629 
L 296.933333 594.58186 
L 301.066667 594.58186 
L 305.2 583.444265 
L 309.333333 587.672592 
L 313.466667 574.024003 
L 317.6 594.58186 
L 321.733333 594.58186 
L 325.866667 592.112736 
L 330 594.393741 
L 334.133333 594.58186 
L 342.4 594.58186 
L 346.533333 593.817338 
L 350.666667 593.433971 
L 354.8 593.332099 
L 358.933333 580.439731 
L 363.066667 585.986151 
L 367.2 588.083762 
L 371.333333 594.364436 
L 375.466667 594.58186 
L 379.6 593.011946 
L 383.733333 594.58186 
L 387.866667 594.58186 
L 392 578.281452 
L 396.133333 594.58186 
L 400.266667 585.451705 
L 404.4 582.678835 
L 408.533333 576.487885 
L 412.666667 593.239385 
L 416.8 594.58186 
L 437.466667 594.58186 
L 441.6 585.073219 
L 445.733333 594.58186 
L 449.866667 591.943659 
L 454 590.137363 
L 458.133333 576.338067 
L 462.266667 567.327423 
L 466.4 594.58186 
L 470.533333 589.055002 
L 474.666667 593.367471 
L 478.8 593.688365 
L 482.933333 594.58186 
L 487.066667 594.58186 
L 491.2 584.239217 
L 495.333333 594.58186 
L 507.733333 594.58186 
L 511.866667 585.316348 
L 516 594.58186 
L 520.133333 588.427954 
L 524.266667 589.604381 
L 528.4 591.892078 
L 532.533333 587.71813 
L 536.666667 594.324822 
L 540.8 585.069382 
L 544.933333 590.964911 
L 549.066667 587.620047 
L 553.2 594.58186 
L 557.333333 592.653906 
L 561.466667 592.853185 
L 565.6 594.58186 
L 569.733333 594.173824 
L 573.866667 594.58186 
L 578 591.080452 
L 582.133333 592.116607 
L 586.266667 590.925334 
L 590.4 588.385746 
L 594.533333 580.855729 
L 598.666667 592.826817 
L 602.8 593.31575 
L 606.933333 594.58186 
L 611.066667 589.10814 
L 615.2 594.58186 
L 619.333333 594.58186 
L 623.466667 592.901444 
L 627.6 594.58186 
L 631.733333 592.511887 
L 635.866667 594.077404 
L 640 594.58186 
L 644.133333 575.148945 
L 648.266667 594.58186 
L 652.4 571.572884 
L 656.533333 585.527819 
L 660.666667 594.58186 
L 668.933333 594.58186 
L 673.066667 590.940868 
L 677.2 594.58186 
L 681.333333 594.58186 
L 685.466667 586.795353 
L 689.6 588.653342 
L 693.733333 577.025963 
L 697.866667 594.58186 
L 702 585.349321 
L 706.133333 594.58186 
L 710.266667 589.822223 
L 714.4 594.58186 
L 718.533333 594.58186 
L 722.666667 592.055927 
L 726.8 594.58186 
L 730.933333 594.504233 
L 735.066667 592.878071 
L 739.2 588.456554 
L 743.333333 594.58186 
L 747.466667 582.691458 
L 751.6 578.618492 
L 755.733333 594.58186 
L 759.866667 577.548396 
L 764 594.58186 
L 768.133333 593.864923 
L 772.266667 594.58186 
L 776.4 594.58186 
L 780.533333 592.784607 
L 784.666667 594.58186 
L 788.8 573.032833 
L 792.933333 584.793222 
L 797.066667 586.463416 
L 801.2 586.802681 
L 805.333333 584.243995 
L 809.466667 592.254443 
L 813.6 594.58186 
L 834.266667 594.58186 
L 838.4 575.176253 
L 842.533333 578.958417 
L 846.666667 561.737151 
L 850.8 581.628212 
L 854.933333 587.816036 
L 859.066667 586.173869 
L 863.2 594.58186 
L 875.6 594.58186 
L 879.733333 593.590836 
L 883.866667 594.58186 
L 888 583.59045 
L 892.133333 587.07712 
L 896.266667 594.58186 
L 900.4 567.380695 
L 904.533333 583.133052 
L 908.666667 591.982833 
L 912.8 594.58186 
L 916.933333 594.58186 
L 921.066667 592.746089 
L 925.2 594.58186 
L 929.333333 594.58186 
L 933.466667 593.3701 
L 937.6 594.341432 
L 941.733333 594.58186 
L 945.866667 585.960922 
L 950 594.58186 
L 954.133333 559.205039 
L 958.266667 572.540659 
L 962.4 594.58186 
L 966.533333 594.58186 
L 970.666667 594.434469 
L 974.8 591.961128 
L 978.933333 594.58186 
L 983.066667 594.58186 
L 987.2 564.372459 
L 991.333333 586.55795 
L 995.466667 575.050766 
L 999.6 556.314928 
L 1003.733333 573.831255 
L 1007.866667 578.238308 
L 1012 594.58186 
L 1032.666667 594.58186 
L 1032.666667 594.58186 
" style="fill:none;stroke:#00bfbf;stroke-linecap:square;"/>
   </g>
   <g id="line2d_5">
    <path clip-path="url(#pc204646d11)" d="M 144 540.080078 
L 148.133333 543.503142 
L 152.266667 550.757582 
L 156.4 550.757582 
L 160.533333 549.020243 
L 164.666667 550.757582 
L 172.933333 550.757582 
L 177.066667 548.539675 
L 181.2 547.077111 
L 185.333333 549.804813 
L 189.466667 546.904462 
L 193.6 533.865867 
L 197.733333 550.757582 
L 201.866667 549.932878 
L 206 544.706252 
L 210.133333 538.805569 
L 214.266667 541.103498 
L 218.4 550.757582 
L 222.533333 549.493364 
L 226.666667 550.325827 
L 230.8 549.949316 
L 234.933333 550.757582 
L 239.066667 550.570587 
L 243.2 550.757582 
L 247.333333 550.635715 
L 251.466667 550.757582 
L 255.6 550.757582 
L 259.733333 548.184953 
L 263.866667 550.757582 
L 268 549.386587 
L 272.133333 550.757582 
L 276.266667 547.198602 
L 280.4 549.906683 
L 284.533333 550.757582 
L 288.666667 549.039497 
L 292.8 550.757582 
L 296.933333 549.099231 
L 301.066667 541.888533 
L 305.2 541.055029 
L 309.333333 546.065557 
L 313.466667 535.654462 
L 317.6 547.287242 
L 321.733333 548.536374 
L 325.866667 550.757582 
L 330 550.637727 
L 334.133333 547.452255 
L 338.266667 550.757582 
L 342.4 546.684794 
L 346.533333 550.757582 
L 350.666667 549.341691 
L 354.8 542.855351 
L 358.933333 550.757582 
L 363.066667 548.147265 
L 367.2 550.757582 
L 371.333333 549.569991 
L 375.466667 547.721285 
L 379.6 550.757582 
L 383.733333 548.940056 
L 387.866667 550.535362 
L 392 550.757582 
L 396.133333 542.39185 
L 400.266667 543.878662 
L 404.4 550.757582 
L 408.533333 544.176035 
L 412.666667 547.0753 
L 416.8 549.778358 
L 420.933333 550.757582 
L 425.066667 550.757582 
L 429.2 547.750369 
L 433.333333 550.757582 
L 437.466667 548.158409 
L 441.6 541.037514 
L 445.733333 550.757582 
L 449.866667 549.412536 
L 458.133333 533.088971 
L 462.266667 534.887647 
L 466.4 550.757582 
L 470.533333 546.179851 
L 474.666667 550.196158 
L 478.8 550.757582 
L 482.933333 550.757582 
L 487.066667 550.581494 
L 491.2 550.757582 
L 495.333333 540.859759 
L 499.466667 550.092572 
L 503.6 550.060039 
L 507.733333 548.20393 
L 511.866667 533.900533 
L 516 547.15371 
L 520.133333 550.757582 
L 524.266667 549.719653 
L 528.4 549.740554 
L 532.533333 550.757582 
L 536.666667 549.811778 
L 540.8 550.757582 
L 544.933333 544.116198 
L 549.066667 550.757582 
L 553.2 545.813578 
L 557.333333 549.134587 
L 561.466667 550.353225 
L 565.6 547.698446 
L 569.733333 550.134735 
L 573.866667 548.67699 
L 578 549.134818 
L 582.133333 546.784021 
L 586.266667 542.511793 
L 590.4 547.868004 
L 594.533333 542.318697 
L 598.666667 530.430335 
L 602.8 550.757582 
L 611.066667 550.757582 
L 615.2 548.659092 
L 619.333333 549.922243 
L 623.466667 550.757582 
L 627.6 547.864588 
L 631.733333 541.365735 
L 635.866667 545.327683 
L 640 550.757582 
L 644.133333 550.757582 
L 648.266667 545.623719 
L 652.4 534.671882 
L 656.533333 550.724867 
L 660.666667 550.223902 
L 664.8 549.9686 
L 668.933333 546.274193 
L 673.066667 549.702081 
L 677.2 550.757582 
L 681.333333 546.883478 
L 685.466667 550.173435 
L 689.6 538.707541 
L 693.733333 550.757582 
L 697.866667 550.757582 
L 702 550.304494 
L 706.133333 547.541558 
L 710.266667 545.046825 
L 714.4 550.574008 
L 718.533333 538.047655 
L 722.666667 547.435759 
L 726.8 550.561273 
L 730.933333 550.757582 
L 735.066667 548.606335 
L 739.2 550.757582 
L 751.6 550.757582 
L 755.733333 539.191102 
L 759.866667 550.757582 
L 764 550.27878 
L 768.133333 549.382082 
L 772.266667 548.30122 
L 776.4 546.824399 
L 780.533333 550.757582 
L 784.666667 549.593535 
L 788.8 534.700047 
L 792.933333 543.388064 
L 797.066667 549.27372 
L 801.2 550.757582 
L 805.333333 543.60505 
L 809.466667 541.800291 
L 813.6 550.663395 
L 817.733333 550.17729 
L 821.866667 550.537336 
L 826 545.090766 
L 830.133333 550.418626 
L 834.266667 550.757582 
L 838.4 548.278838 
L 842.533333 550.757582 
L 846.666667 531.855193 
L 850.8 535.673421 
L 854.933333 536.84451 
L 859.066667 541.964623 
L 863.2 550.360853 
L 867.333333 548.866458 
L 871.466667 550.757582 
L 883.866667 550.757582 
L 888 549.997498 
L 892.133333 542.743149 
L 896.266667 549.224069 
L 900.4 550.757582 
L 904.533333 546.391908 
L 908.666667 549.54645 
L 912.8 550.757582 
L 916.933333 550.757582 
L 921.066667 550.294903 
L 925.2 549.976065 
L 933.466667 550.757582 
L 937.6 546.53238 
L 941.733333 550.757582 
L 945.866667 550.757582 
L 950 548.742934 
L 954.133333 527.738603 
L 958.266667 550.757582 
L 962.4 550.757582 
L 966.533333 549.383497 
L 970.666667 549.336203 
L 974.8 550.591881 
L 978.933333 550.757582 
L 983.066667 548.632462 
L 987.2 539.772663 
L 991.333333 550.757582 
L 995.466667 543.890736 
L 999.6 546.707654 
L 1003.733333 550.757582 
L 1007.866667 541.610177 
L 1012 549.682769 
L 1016.133333 549.981433 
L 1020.266667 550.757582 
L 1028.533333 549.792214 
L 1032.666667 550.757582 
L 1032.666667 550.757582 
" style="fill:none;stroke:#bf00bf;stroke-linecap:square;"/>
   </g>
   <g id="line2d_6">
    <path clip-path="url(#pc204646d11)" d="M 144 505.679633 
L 148.133333 505.525955 
L 152.266667 505.679633 
L 206 505.679633 
L 210.133333 502.071795 
L 214.266667 500.899073 
L 218.4 505.679633 
L 243.2 505.679633 
L 247.333333 504.16061 
L 251.466667 498.681309 
L 255.6 505.679633 
L 259.733333 505.679633 
L 263.866667 503.529865 
L 268 505.679633 
L 400.266667 505.679633 
L 404.4 505.133517 
L 408.533333 505.679633 
L 445.733333 505.679633 
L 449.866667 505.379616 
L 454 504.876665 
L 458.133333 505.679633 
L 499.466667 505.679633 
L 503.6 503.54207 
L 507.733333 505.679633 
L 586.266667 505.679633 
L 590.4 504.256031 
L 594.533333 505.679633 
L 735.066667 505.679633 
L 739.2 504.627419 
L 743.333333 505.679633 
L 747.466667 505.679633 
L 751.6 505.199339 
L 755.733333 505.679633 
L 883.866667 505.679633 
L 888 468.301598 
L 892.133333 472.859796 
L 896.266667 470.380061 
L 900.4 472.060729 
L 904.533333 481.114821 
L 908.666667 465.720304 
L 912.8 505.679633 
L 933.466667 505.679633 
L 937.6 472.064362 
L 941.733333 466.572955 
L 945.866667 470.690222 
L 950 470.432577 
L 954.133333 483.267708 
L 958.266667 471.836931 
L 962.4 505.679633 
L 983.066667 505.679633 
L 987.2 476.579618 
L 991.333333 470.455575 
L 999.6 463.05 
L 1003.733333 470.178981 
L 1007.866667 474.52885 
L 1012 505.679633 
L 1032.666667 505.679633 
L 1032.666667 505.679633 
" style="fill:none;stroke:#bfbf00;stroke-linecap:square;"/>
   </g>
   <g id="line2d_7">
    <path clip-path="url(#pc204646d11)" d="M 144 463.832538 
L 148.133333 463.832538 
L 152.266667 463.832538 
L 156.4 462.375726 
L 160.533333 463.832538 
L 197.733333 463.832538 
L 201.866667 462.96377 
L 206 461.480535 
L 210.133333 463.832538 
L 247.333333 463.832538 
L 251.466667 463.10941 
L 255.6 463.832538 
L 288.666667 463.832538 
L 292.8 443.681691 
L 296.933333 440.614317 
L 301.066667 436.557707 
L 305.2 430.3553 
L 309.333333 436.267004 
L 313.466667 427.220758 
L 317.6 463.832538 
L 338.266667 463.832538 
L 342.4 437.454444 
L 346.533333 430.640919 
L 350.666667 438.856344 
L 354.8 440.54343 
L 358.933333 431.846748 
L 363.066667 426.493929 
L 367.2 463.832538 
L 387.866667 463.832538 
L 392 429.144264 
L 396.133333 421.2 
L 400.266667 429.822348 
L 404.4 437.180145 
L 408.533333 430.450573 
L 412.666667 431.340108 
L 416.8 463.832538 
L 441.6 463.832538 
L 445.733333 461.864245 
L 449.866667 461.939977 
L 454 460.502283 
L 458.133333 463.832538 
L 495.333333 463.832538 
L 499.466667 460.310105 
L 503.6 458.164766 
L 507.733333 463.832538 
L 540.8 463.832538 
L 544.933333 461.927952 
L 549.066667 462.975128 
L 553.2 460.548909 
L 557.333333 463.832538 
L 561.466667 463.28588 
L 565.6 463.832538 
L 586.266667 463.832538 
L 590.4 460.132107 
L 594.533333 463.832538 
L 598.666667 463.209479 
L 602.8 463.832538 
L 635.866667 463.832538 
L 640 462.748068 
L 644.133333 463.832538 
L 648.266667 462.711337 
L 652.4 463.832538 
L 743.333333 463.832538 
L 747.466667 462.867951 
L 751.6 463.832538 
L 755.733333 462.014449 
L 759.866667 458.162441 
L 764 463.832538 
L 792.933333 463.832538 
L 797.066667 462.860283 
L 801.2 463.832538 
L 805.333333 463.292564 
L 809.466667 463.832538 
L 834.266667 463.832538 
L 838.4 460.37293 
L 842.533333 463.832538 
L 846.666667 462.784798 
L 850.8 458.548675 
L 854.933333 458.861768 
L 859.066667 459.458432 
L 863.2 463.832538 
L 937.6 463.832538 
L 941.733333 460.401134 
L 945.866667 460.468617 
L 950 463.832538 
L 983.066667 463.832538 
L 987.2 462.90759 
L 991.333333 463.433194 
L 995.466667 463.832538 
L 1003.733333 463.832538 
L 1007.866667 461.180135 
L 1012 463.832538 
L 1032.666667 463.832538 
L 1032.666667 463.832538 
" style="fill:none;stroke:#000000;stroke-linecap:square;"/>
   </g>
   <g id="line2d_8">
    <path clip-path="url(#pc204646d11)" d="M 144 425.362945 
L 148.133333 425.362945 
L 152.266667 414.993472 
L 156.4 423.710085 
L 160.533333 423.813963 
L 164.666667 425.362945 
L 193.6 425.362945 
L 197.733333 412.029223 
L 201.866667 425.362945 
L 206 404.758506 
L 210.133333 421.630551 
L 214.266667 422.569423 
L 218.4 424.475558 
L 222.533333 425.362945 
L 243.2 425.362945 
L 251.466667 417.839972 
L 255.6 421.156814 
L 259.733333 412.048367 
L 263.866667 418.637839 
L 268 420.709129 
L 272.133333 425.362945 
L 288.666667 425.362945 
L 292.8 416.920381 
L 296.933333 412.777717 
L 301.066667 410.768845 
L 305.2 415.386009 
L 309.333333 417.380494 
L 313.466667 414.108766 
L 317.6 425.362945 
L 330 425.362945 
L 334.133333 425.209396 
L 338.266667 424.282972 
L 342.4 413.883789 
L 346.533333 421.654451 
L 350.666667 415.776948 
L 354.8 417.426261 
L 358.933333 425.362945 
L 363.066667 411.385612 
L 367.2 425.362945 
L 379.6 425.362945 
L 383.733333 423.377987 
L 387.866667 425.362945 
L 392 416.74878 
L 396.133333 424.661127 
L 400.266667 400.562968 
L 404.4 425.362945 
L 408.533333 409.176482 
L 412.666667 406.009438 
L 416.8 425.362945 
L 425.066667 425.362945 
L 429.2 422.139334 
L 433.333333 425.362945 
L 441.6 425.362945 
L 445.733333 419.580077 
L 449.866667 425.362945 
L 454 423.433809 
L 458.133333 421.063931 
L 462.266667 416.519791 
L 466.4 425.362945 
L 495.333333 425.362945 
L 499.466667 420.862394 
L 503.6 418.486691 
L 507.733333 425.362945 
L 511.866667 425.362945 
L 516 423.023567 
L 520.133333 423.198956 
L 524.266667 425.362945 
L 528.4 425.362945 
L 532.533333 424.924563 
L 536.666667 425.362945 
L 540.8 425.362945 
L 544.933333 420.500661 
L 549.066667 425.362945 
L 557.333333 425.362945 
L 561.466667 417.034643 
L 565.6 425.301694 
L 573.866667 425.362945 
L 578 425.138112 
L 582.133333 424.577024 
L 586.266667 425.362945 
L 590.4 403.847494 
L 594.533333 425.362945 
L 598.666667 403.031365 
L 602.8 415.589384 
L 606.933333 415.960148 
L 611.066667 422.674665 
L 615.2 425.362945 
L 635.866667 425.362945 
L 640 405.565884 
L 644.133333 422.463365 
L 648.266667 425.362945 
L 652.4 394.050017 
L 656.533333 416.507292 
L 660.666667 417.972942 
L 664.8 425.362945 
L 685.466667 425.362945 
L 689.6 415.598233 
L 693.733333 412.993015 
L 697.866667 400.809127 
L 702 412.38552 
L 706.133333 425.362945 
L 735.066667 425.362945 
L 739.2 420.595298 
L 743.333333 416.180256 
L 747.466667 405.264758 
L 751.6 414.433917 
L 755.733333 413.058317 
L 759.866667 413.373853 
L 764 425.362945 
L 784.666667 425.362945 
L 788.8 418.824928 
L 792.933333 413.120941 
L 797.066667 423.544258 
L 801.2 425.362945 
L 805.333333 419.528304 
L 809.466667 425.362945 
L 834.266667 425.362945 
L 838.4 418.152601 
L 842.533333 415.487585 
L 846.666667 398.114856 
L 850.8 399.539066 
L 854.933333 407.652857 
L 859.066667 410.959342 
L 863.2 425.362945 
L 883.866667 425.362945 
L 888 416.121245 
L 892.133333 425.362945 
L 896.266667 425.362945 
L 900.4 401.74813 
L 904.533333 406.439776 
L 908.666667 413.251533 
L 912.8 425.362945 
L 916.933333 424.643715 
L 921.066667 425.362945 
L 933.466667 425.362945 
L 937.6 423.698167 
L 941.733333 421.307758 
L 945.866667 425.362945 
L 950 408.286591 
L 954.133333 412.243848 
L 958.266667 423.14925 
L 962.4 425.362945 
L 966.533333 425.362945 
L 970.666667 424.741216 
L 974.8 425.362945 
L 995.466667 425.362945 
L 999.6 417.952753 
L 1003.733333 422.378299 
L 1007.866667 403.424653 
L 1012 425.362945 
L 1024.4 425.362945 
L 1028.533333 425.06315 
L 1032.666667 425.362945 
L 1032.666667 425.362945 
" style="fill:none;stroke:#0000ff;stroke-linecap:square;"/>
   </g>
   <g id="line2d_9">
    <path clip-path="url(#pc204646d11)" d="M 144 382.746611 
L 148.133333 383.483657 
L 164.666667 383.483657 
L 168.8 377.565078 
L 172.933333 378.202992 
L 177.066667 370.701466 
L 181.2 374.118764 
L 185.333333 375.101042 
L 189.466667 372.31888 
L 193.6 383.483657 
L 197.733333 382.967117 
L 201.866667 383.483657 
L 214.266667 383.483657 
L 218.4 379.256153 
L 222.533333 376.221839 
L 226.666667 372.151742 
L 230.8 377.592699 
L 234.933333 378.203076 
L 239.066667 377.336956 
L 243.2 383.483657 
L 251.466667 383.483657 
L 255.6 382.786018 
L 259.733333 377.573834 
L 263.866667 377.253171 
L 268 369.410132 
L 272.133333 378.801454 
L 276.266667 376.283339 
L 280.4 376.796652 
L 284.533333 375.693431 
L 288.666667 380.396271 
L 292.8 380.435221 
L 296.933333 379.514091 
L 301.066667 383.283154 
L 309.333333 380.887416 
L 313.466667 372.545631 
L 317.6 377.093117 
L 321.733333 371.552394 
L 325.866667 376.309885 
L 330 377.900084 
L 334.133333 378.142141 
L 338.266667 381.374169 
L 342.4 380.070546 
L 346.533333 383.483657 
L 350.666667 383.483657 
L 354.8 379.812375 
L 358.933333 383.483657 
L 363.066667 382.164095 
L 367.2 375.961556 
L 371.333333 372.540604 
L 375.466667 374.084305 
L 379.6 375.924572 
L 383.733333 375.880984 
L 392 381.184835 
L 396.133333 383.483657 
L 400.266667 377.859939 
L 404.4 383.483657 
L 408.533333 383.483657 
L 412.666667 375.813313 
L 416.8 378.142853 
L 420.933333 378.120614 
L 425.066667 380.066881 
L 429.2 377.096276 
L 433.333333 377.613568 
L 437.466667 379.437867 
L 441.6 383.483657 
L 449.866667 383.483657 
L 454 380.380285 
L 458.133333 379.161776 
L 462.266667 380.220522 
L 466.4 373.47671 
L 470.533333 373.328942 
L 474.666667 375.63374 
L 478.8 380.159234 
L 482.933333 378.825274 
L 491.2 379.942148 
L 495.333333 383.483657 
L 507.733333 383.483657 
L 511.866667 381.85582 
L 516 377.894242 
L 520.133333 373.300195 
L 524.266667 375.644118 
L 528.4 374.166125 
L 532.533333 375.51853 
L 536.666667 377.894727 
L 540.8 383.483657 
L 549.066667 383.483657 
L 553.2 382.833585 
L 557.333333 383.483657 
L 561.466667 378.738781 
L 569.733333 373.076595 
L 573.866667 371.260016 
L 578 376.764299 
L 582.133333 375.050336 
L 586.266667 375.254513 
L 590.4 383.334107 
L 594.533333 381.755374 
L 598.666667 383.483657 
L 602.8 379.367764 
L 606.933333 383.483657 
L 615.2 374.60571 
L 619.333333 377.504309 
L 623.466667 372.93104 
L 627.6 379.641403 
L 631.733333 374.83309 
L 635.866667 379.135822 
L 640 383.087807 
L 644.133333 383.483657 
L 648.266667 383.483657 
L 652.4 365.319688 
L 656.533333 382.074661 
L 660.666667 380.229335 
L 664.8 374.899408 
L 668.933333 375.273528 
L 673.066667 373.356669 
L 677.2 382.387277 
L 681.333333 375.098242 
L 685.466667 373.020716 
L 689.6 381.312261 
L 693.733333 383.483657 
L 697.866667 383.483657 
L 702 379.166153 
L 706.133333 379.005631 
L 710.266667 379.549154 
L 714.4 377.817743 
L 718.533333 374.50447 
L 722.666667 375.215243 
L 726.8 379.251606 
L 730.933333 378.204297 
L 739.2 378.96854 
L 743.333333 375.501869 
L 747.466667 383.483657 
L 751.6 383.483657 
L 755.733333 378.238589 
L 759.866667 383.483657 
L 764 380.252235 
L 768.133333 381.675446 
L 772.266667 378.049528 
L 776.4 370.928448 
L 780.533333 380.857942 
L 784.666667 377.794841 
L 788.8 366.858029 
L 792.933333 380.417448 
L 797.066667 382.953894 
L 801.2 379.998463 
L 805.333333 378.525908 
L 809.466667 383.483657 
L 813.6 383.483657 
L 817.733333 380.014792 
L 821.866667 382.362349 
L 826 382.876408 
L 830.133333 381.624824 
L 834.266667 374.112952 
L 838.4 381.03797 
L 842.533333 370.535885 
L 846.666667 381.760484 
L 850.8 382.437921 
L 854.933333 383.483657 
L 859.066667 379.940947 
L 863.2 382.012315 
L 867.333333 382.806861 
L 871.466667 379.40651 
L 875.6 380.860365 
L 879.733333 376.784889 
L 883.866667 380.951208 
L 888 383.483657 
L 892.133333 376.530611 
L 896.266667 383.483657 
L 900.4 381.75643 
L 904.533333 381.767289 
L 908.666667 383.483657 
L 912.8 376.075613 
L 916.933333 379.686663 
L 921.066667 378.038975 
L 925.2 379.147363 
L 929.333333 377.200025 
L 933.466667 378.548692 
L 937.6 382.134696 
L 941.733333 381.541332 
L 945.866667 378.33365 
L 950 382.004544 
L 954.133333 366.541238 
L 958.266667 383.483657 
L 962.4 379.064462 
L 966.533333 377.290325 
L 970.666667 380.231425 
L 974.8 380.094043 
L 978.933333 380.96508 
L 983.066667 375.778598 
L 987.2 383.483657 
L 999.6 383.483657 
L 1003.733333 379.54902 
L 1007.866667 380.64838 
L 1012 371.505703 
L 1016.133333 373.675006 
L 1020.266667 376.888973 
L 1024.4 376.000602 
L 1028.533333 379.911009 
L 1032.666667 381.721971 
L 1032.666667 381.721971 
" style="fill:none;stroke:#008000;stroke-linecap:square;"/>
   </g>
   <g id="line2d_10">
    <path clip-path="url(#pc204646d11)" d="M 144 327.67571 
L 148.133333 338.596278 
L 152.266667 331.175787 
L 156.4 344.619853 
L 160.533333 335.220149 
L 164.666667 344.619853 
L 168.8 344.619853 
L 172.933333 344.113903 
L 177.066667 344.619853 
L 181.2 342.01437 
L 185.333333 344.619853 
L 189.466667 341.261921 
L 193.6 336.092554 
L 197.733333 344.192313 
L 201.866667 323.916561 
L 206 335.593298 
L 210.133333 337.013738 
L 214.266667 325.748954 
L 218.4 344.619853 
L 222.533333 344.165391 
L 226.666667 344.619853 
L 243.2 344.619853 
L 247.333333 311.92985 
L 251.466667 344.375995 
L 255.6 324.86411 
L 259.733333 323.331964 
L 263.866667 328.449471 
L 268 344.619853 
L 309.333333 344.619853 
L 313.466667 329.870065 
L 317.6 338.911924 
L 321.733333 339.900183 
L 325.866667 343.320883 
L 330 343.427842 
L 334.133333 342.595137 
L 338.266667 344.619853 
L 354.8 344.619853 
L 358.933333 343.894216 
L 363.066667 344.560307 
L 367.2 335.029743 
L 371.333333 334.760309 
L 375.466667 338.988377 
L 379.6 338.728526 
L 383.733333 343.45815 
L 387.866667 343.860557 
L 392 322.785206 
L 396.133333 344.619853 
L 400.266667 332.391786 
L 404.4 341.372326 
L 408.533333 344.619853 
L 412.666667 339.303998 
L 416.8 344.619853 
L 420.933333 333.196966 
L 425.066667 344.619853 
L 429.2 344.619853 
L 433.333333 343.616042 
L 437.466667 341.986407 
L 441.6 336.672969 
L 445.733333 344.619853 
L 449.866667 341.087849 
L 454 338.777912 
L 458.133333 337.104368 
L 462.266667 336.182501 
L 466.4 344.619853 
L 470.533333 340.218013 
L 474.666667 344.619853 
L 499.466667 344.619853 
L 503.6 329.153099 
L 507.733333 338.37023 
L 511.866667 344.619853 
L 516 340.835123 
L 520.133333 343.331239 
L 524.266667 342.079329 
L 528.4 344.619853 
L 536.666667 344.619853 
L 540.8 336.909694 
L 544.933333 338.892387 
L 549.066667 344.574446 
L 553.2 339.978843 
L 557.333333 344.619853 
L 561.466667 340.641582 
L 565.6 344.619853 
L 569.733333 343.499549 
L 573.866667 343.550654 
L 578 344.619853 
L 582.133333 330.383291 
L 586.266667 344.383828 
L 590.4 331.688802 
L 594.533333 321.620554 
L 598.666667 333.495763 
L 602.8 330.822115 
L 606.933333 344.619853 
L 611.066667 341.238271 
L 615.2 344.619853 
L 635.866667 344.619556 
L 640 314.185624 
L 644.133333 340.545698 
L 648.266667 328.06803 
L 652.4 338.441487 
L 656.533333 320.690235 
L 660.666667 321.396763 
L 664.8 344.619853 
L 677.2 344.619853 
L 685.466667 344.619853 
L 689.6 313.921412 
L 693.733333 318.384811 
L 697.866667 337.554655 
L 702 315.79447 
L 706.133333 337.934189 
L 710.266667 343.430472 
L 714.4 344.619853 
L 730.933333 344.619853 
L 735.066667 340.852074 
L 739.2 318.532075 
L 743.333333 333.829603 
L 747.466667 316.877551 
L 751.6 339.346114 
L 755.733333 317.967071 
L 759.866667 344.619853 
L 772.266667 344.619853 
L 776.4 344.417492 
L 780.533333 344.619853 
L 784.666667 343.057318 
L 788.8 334.028224 
L 792.933333 336.697851 
L 797.066667 334.615311 
L 801.2 324.055899 
L 805.333333 320.585363 
L 809.466667 335.155699 
L 813.6 344.619853 
L 838.4 344.619853 
L 842.533333 331.343672 
L 846.666667 320.791104 
L 850.8 331.244707 
L 854.933333 329.998063 
L 859.066667 344.619853 
L 863.2 343.893636 
L 867.333333 344.619853 
L 879.733333 344.619853 
L 883.866667 343.48414 
L 888 344.619853 
L 892.133333 343.503567 
L 896.266667 344.619853 
L 900.4 341.815557 
L 904.533333 332.066466 
L 908.666667 339.879239 
L 912.8 344.619853 
L 916.933333 344.619853 
L 925.2 343.993393 
L 929.333333 344.619853 
L 933.466667 344.619853 
L 937.6 326.372692 
L 941.733333 339.432067 
L 945.866667 339.659654 
L 950 339.024152 
L 954.133333 323.652371 
L 958.266667 332.786621 
L 962.4 344.619853 
L 987.2 344.619853 
L 991.333333 331.305232 
L 995.466667 344.619853 
L 999.6 344.619853 
L 1003.733333 341.095099 
L 1007.866667 325.680281 
L 1012 341.01167 
L 1016.133333 344.619853 
L 1020.266667 344.619853 
L 1024.4 343.891041 
L 1028.533333 344.619853 
L 1032.666667 344.619853 
L 1032.666667 344.619853 
" style="fill:none;stroke:#ff0000;stroke-linecap:square;"/>
   </g>
   <g id="line2d_11">
    <path clip-path="url(#pc204646d11)" d="M 144 296.456242 
L 148.133333 296.456242 
L 152.266667 296.456242 
L 156.4 296.043071 
L 160.533333 295.351876 
L 164.666667 296.456242 
L 234.933333 296.456242 
L 239.066667 296.220386 
L 243.2 296.456242 
L 259.733333 296.456242 
L 263.866667 295.2755 
L 268 296.456242 
L 301.066667 296.456242 
L 305.2 294.83692 
L 309.333333 296.456242 
L 334.133333 296.456242 
L 338.266667 296.293541 
L 342.4 296.456242 
L 387.866667 296.456242 
L 392 295.678142 
L 396.133333 296.456242 
L 400.266667 296.456242 
L 404.4 295.740334 
L 408.533333 296.456242 
L 644.133333 296.456242 
L 648.266667 295.030123 
L 652.4 293.734349 
L 656.533333 294.417006 
L 660.666667 296.456242 
L 735.066667 296.456242 
L 739.2 295.787932 
L 743.333333 295.534746 
L 747.466667 295.429307 
L 751.6 296.456242 
L 755.733333 296.456242 
L 759.866667 289.91001 
L 764 296.456242 
L 792.933333 296.456242 
L 797.066667 293.537574 
L 801.2 296.456242 
L 805.333333 291.972659 
L 809.466667 294.811793 
L 813.6 296.456242 
L 834.266667 296.456242 
L 838.4 285.823832 
L 842.533333 296.158887 
L 846.666667 296.456242 
L 854.933333 296.456242 
L 859.066667 290.2682 
L 863.2 296.456242 
L 888 296.456242 
L 892.133333 296.234683 
L 896.266667 296.456242 
L 900.4 296.456242 
L 904.533333 295.606462 
L 908.666667 296.456242 
L 983.066667 296.456242 
L 987.2 290.503427 
L 991.333333 296.456242 
L 1032.666667 296.456242 
L 1032.666667 296.456242 
" style="fill:none;stroke:#00bfbf;stroke-linecap:square;"/>
   </g>
   <g id="line2d_12">
    <path clip-path="url(#pc204646d11)" d="M 144 254.549901 
L 148.133333 252.27677 
L 152.266667 254.549901 
L 156.4 254.549901 
L 160.533333 253.290005 
L 164.666667 254.549901 
L 197.733333 254.549901 
L 201.866667 253.945979 
L 206 254.549901 
L 210.133333 252.393122 
L 214.266667 254.549901 
L 396.133333 254.549901 
L 400.266667 253.610538 
L 404.4 254.549901 
L 408.533333 253.084932 
L 412.666667 254.549901 
L 445.733333 254.549901 
L 449.866667 253.194121 
L 454 254.549901 
L 540.8 254.549901 
L 544.933333 253.315068 
L 549.066667 254.549901 
L 557.333333 254.549901 
L 561.466667 254.073137 
L 565.6 254.436224 
L 569.733333 254.549901 
L 586.266667 254.549901 
L 590.4 251.610045 
L 594.533333 254.549901 
L 606.933333 254.549901 
L 611.066667 250.946977 
L 615.2 254.549901 
L 640 254.549901 
L 644.133333 254.20727 
L 648.266667 252.629539 
L 652.4 254.549901 
L 697.866667 254.549901 
L 702 253.688018 
L 706.133333 254.120618 
L 710.266667 254.222979 
L 714.4 254.549901 
L 788.8 254.549901 
L 792.933333 246.86403 
L 797.066667 254.549901 
L 801.2 254.549901 
L 805.333333 253.886921 
L 809.466667 254.549901 
L 838.4 254.549901 
L 842.533333 254.402758 
L 846.666667 254.549901 
L 850.8 245.604693 
L 854.933333 254.549901 
L 883.866667 254.549901 
L 888 254.320147 
L 892.133333 252.162373 
L 896.266667 252.960307 
L 900.4 254.549901 
L 991.333333 254.549901 
L 995.466667 250.111721 
L 999.6 254.549901 
L 1032.666667 254.549901 
L 1032.666667 254.549901 
" style="fill:none;stroke:#bf00bf;stroke-linecap:square;"/>
   </g>
   <g id="line2d_13">
    <path clip-path="url(#pc204646d11)" d="M 144 212.987217 
L 148.133333 212.987217 
L 152.266667 212.987217 
L 156.4 206.709161 
L 160.533333 209.435871 
L 164.666667 211.826914 
L 168.8 212.987217 
L 210.133333 212.987217 
L 214.266667 212.204816 
L 218.4 212.987217 
L 259.733333 212.987217 
L 263.866667 209.993942 
L 268 212.987217 
L 288.666667 212.987217 
L 292.8 206.252787 
L 296.933333 212.790244 
L 301.066667 209.164808 
L 305.2 212.987217 
L 338.266667 212.987217 
L 342.4 212.332831 
L 346.533333 207.047719 
L 350.666667 212.987217 
L 354.8 212.053282 
L 358.933333 212.987217 
L 363.066667 212.206244 
L 367.2 212.987217 
L 400.266667 212.987217 
L 404.4 210.142951 
L 408.533333 212.987217 
L 437.466667 212.987217 
L 441.6 212.724974 
L 445.733333 212.987217 
L 449.866667 209.675782 
L 454 212.987217 
L 458.133333 212.987217 
L 462.266667 210.33851 
L 466.4 212.987217 
L 536.666667 212.987217 
L 540.8 209.518101 
L 544.933333 212.987217 
L 557.333333 212.987217 
L 561.466667 208.827136 
L 565.6 212.987217 
L 586.266667 212.987217 
L 590.4 177.622845 
L 594.533333 171.85803 
L 598.666667 173.086054 
L 602.8 176.97028 
L 606.933333 176.399196 
L 611.066667 176.0529 
L 615.2 212.987217 
L 635.866667 212.987217 
L 640 170.1 
L 644.133333 171.310276 
L 648.266667 184.427087 
L 652.4 174.914615 
L 656.533333 178.853387 
L 660.666667 175.369956 
L 664.8 212.987217 
L 685.466667 212.987217 
L 689.6 174.230854 
L 693.733333 171.047844 
L 697.866667 171.706398 
L 702 171.463108 
L 706.133333 179.91356 
L 710.266667 179.778737 
L 714.4 212.987217 
L 739.2 212.987217 
L 743.333333 211.433062 
L 747.466667 212.987217 
L 751.6 209.136827 
L 755.733333 212.987217 
L 759.866667 206.198584 
L 764 212.987217 
L 797.066667 212.987217 
L 801.2 207.189857 
L 805.333333 212.987217 
L 809.466667 212.758928 
L 813.6 212.987217 
L 838.4 212.987217 
L 842.533333 206.76662 
L 846.666667 212.987217 
L 850.8 212.987217 
L 854.933333 212.414179 
L 859.066667 212.987217 
L 888 212.987217 
L 892.133333 212.403722 
L 896.266667 212.987217 
L 900.4 211.050738 
L 904.533333 212.987217 
L 933.466667 212.987217 
L 937.6 211.901417 
L 941.733333 212.987217 
L 995.466667 212.987217 
L 999.6 212.863259 
L 1003.733333 212.987217 
L 1007.866667 210.291786 
L 1012 212.987217 
L 1032.666667 212.987217 
L 1032.666667 212.987217 
" style="fill:none;stroke:#bfbf00;stroke-linecap:square;"/>
   </g>
   <g id="line2d_14">
    <path clip-path="url(#pc204646d11)" d="M 144 170.431319 
L 148.133333 167.949005 
L 152.266667 170.631123 
L 156.4 171.269403 
L 160.533333 171.269403 
L 164.666667 170.717463 
L 168.8 171.269403 
L 197.733333 171.269403 
L 201.866667 167.558577 
L 206 171.269403 
L 239.066667 171.269403 
L 243.2 169.060811 
L 247.333333 171.269403 
L 255.6 171.269403 
L 259.733333 171.140607 
L 263.866667 171.269403 
L 292.8 171.269403 
L 296.933333 163.459629 
L 301.066667 171.269403 
L 305.2 168.983375 
L 309.333333 166.254176 
L 313.466667 165.213909 
L 317.6 171.269403 
L 338.266667 171.269403 
L 342.4 167.107689 
L 346.533333 171.269403 
L 350.666667 171.157829 
L 354.8 169.150468 
L 358.933333 171.269403 
L 396.133333 171.269403 
L 400.266667 169.438724 
L 404.4 171.269403 
L 408.533333 165.656224 
L 412.666667 169.132049 
L 416.8 171.269403 
L 437.466667 171.269403 
L 441.6 128.25 
L 445.733333 135.529251 
L 449.866667 138.176138 
L 454 137.779696 
L 458.133333 131.566757 
L 462.266667 131.698545 
L 466.4 171.269403 
L 487.066667 171.269403 
L 491.2 137.334596 
L 495.333333 135.834076 
L 499.466667 136.495291 
L 503.6 135.609252 
L 507.733333 137.476422 
L 511.866667 137.542985 
L 516 171.269403 
L 536.666667 171.269403 
L 540.8 131.293036 
L 544.933333 138.112318 
L 549.066667 140.274761 
L 553.2 133.461111 
L 557.333333 147.423235 
L 561.466667 143.51044 
L 565.6 171.269403 
L 590.4 171.269403 
L 594.533333 168.961284 
L 598.666667 171.269403 
L 602.8 166.514451 
L 606.933333 171.269403 
L 644.133333 171.269403 
L 648.266667 169.492462 
L 652.4 171.269403 
L 656.533333 169.173058 
L 660.666667 170.42591 
L 664.8 171.269403 
L 685.466667 171.269403 
L 689.6 165.201872 
L 693.733333 171.269403 
L 702 171.269403 
L 706.133333 167.483384 
L 710.266667 165.126443 
L 714.4 171.269403 
L 735.066667 171.269403 
L 739.2 171.099991 
L 743.333333 162.069831 
L 747.466667 164.495564 
L 751.6 167.716171 
L 755.733333 165.221882 
L 759.866667 171.269403 
L 784.666667 171.269403 
L 788.8 168.702131 
L 792.933333 165.712006 
L 797.066667 164.727411 
L 801.2 168.534784 
L 805.333333 171.269403 
L 809.466667 163.221696 
L 813.6 171.269403 
L 846.666667 171.269403 
L 850.8 169.013886 
L 854.933333 171.269403 
L 859.066667 170.021571 
L 863.2 171.269403 
L 883.866667 171.269403 
L 888 164.448489 
L 892.133333 171.269403 
L 896.266667 165.440328 
L 900.4 169.952284 
L 904.533333 171.269403 
L 933.466667 171.269403 
L 937.6 166.359902 
L 941.733333 171.14095 
L 945.866667 171.269403 
L 950 171.269403 
L 954.133333 161.576931 
L 958.266667 168.10429 
L 962.4 171.269403 
L 995.466667 171.269403 
L 999.6 169.373674 
L 1003.733333 170.839385 
L 1007.866667 171.269403 
L 1032.666667 171.269403 
L 1032.666667 171.269403 
" style="fill:none;stroke:#000000;stroke-linecap:square;"/>
   </g>
   <g id="line2d_15">
    <path clip-path="url(#pc204646d11)" d="M 144 129.642668 
L 148.133333 129.642668 
L 152.266667 129.642668 
L 156.4 129.316426 
L 160.533333 127.779543 
L 164.666667 129.642668 
L 168.8 129.642668 
L 172.933333 129.163016 
L 177.066667 129.642668 
L 189.466667 129.642668 
L 193.6 125.044634 
L 197.733333 125.7155 
L 201.866667 129.642668 
L 206 129.642668 
L 210.133333 129.123579 
L 214.266667 127.317297 
L 218.4 129.642668 
L 243.2 129.642668 
L 247.333333 127.259428 
L 251.466667 129.642668 
L 255.6 127.34468 
L 259.733333 129.642668 
L 288.666667 129.642668 
L 292.8 120.217497 
L 296.933333 122.417385 
L 301.066667 127.716192 
L 305.2 121.967907 
L 309.333333 129.642668 
L 334.133333 129.642668 
L 338.266667 129.201186 
L 342.4 129.642668 
L 346.533333 129.642668 
L 350.666667 125.426108 
L 354.8 129.642668 
L 358.933333 128.276224 
L 363.066667 124.862664 
L 367.2 129.642668 
L 371.333333 129.445956 
L 375.466667 129.642668 
L 392 129.642668 
L 396.133333 127.206211 
L 400.266667 120.842367 
L 404.4 126.610786 
L 408.533333 129.642668 
L 437.466667 129.642668 
L 441.6 127.37974 
L 445.733333 129.642668 
L 470.533333 129.642668 
L 474.666667 128.969719 
L 478.8 129.474648 
L 487.066667 129.642668 
L 491.2 122.981879 
L 495.333333 129.642668 
L 499.466667 124.286703 
L 503.6 125.746974 
L 507.733333 129.642668 
L 511.866667 114.184326 
L 516 129.642668 
L 536.666667 129.642668 
L 540.8 126.648414 
L 544.933333 120.784593 
L 549.066667 129.642668 
L 553.2 129.356212 
L 557.333333 127.933462 
L 561.466667 128.033066 
L 565.6 129.642668 
L 569.733333 129.642668 
L 573.866667 128.673045 
L 578 129.642668 
L 602.8 129.642668 
L 606.933333 129.278358 
L 611.066667 129.642668 
L 640 129.642668 
L 644.133333 128.472376 
L 648.266667 129.642668 
L 652.4 123.733648 
L 656.533333 128.751096 
L 660.666667 129.642668 
L 689.6 129.642668 
L 693.733333 127.666195 
L 697.866667 129.642668 
L 735.066667 129.642668 
L 739.2 129.16464 
L 743.333333 129.642668 
L 747.466667 129.642668 
L 751.6 122.224946 
L 755.733333 128.183143 
L 759.866667 129.642668 
L 784.666667 129.642668 
L 788.8 123.727028 
L 792.933333 129.642668 
L 797.066667 129.312217 
L 805.333333 120.044675 
L 809.466667 129.642668 
L 838.4 129.642668 
L 842.533333 124.398449 
L 846.666667 129.642668 
L 850.8 129.642668 
L 854.933333 125.179874 
L 859.066667 128.693703 
L 863.2 129.642668 
L 888 129.642668 
L 892.133333 123.173226 
L 896.266667 129.642668 
L 900.4 127.16886 
L 904.533333 126.287783 
L 908.666667 129.642668 
L 950 129.642668 
L 954.133333 128.466678 
L 958.266667 129.642668 
L 999.6 129.642668 
L 1003.733333 125.964775 
L 1007.866667 128.37812 
L 1012 129.642668 
L 1032.666667 129.642668 
L 1032.666667 129.642668 
" style="fill:none;stroke:#0000ff;stroke-linecap:square;"/>
   </g>
   <g id="patch_3">
    <path d="M 144 86.4 
L 1036.8 86.4 
" style="fill:none;stroke:#000000;stroke-linecap:square;stroke-linejoin:miter;"/>
   </g>
   <g id="patch_4">
    <path d="M 1036.8 756 
L 1036.8 86.4 
" style="fill:none;stroke:#000000;stroke-linecap:square;stroke-linejoin:miter;"/>
   </g>
   <g id="patch_5">
    <path d="M 144 756 
L 1036.8 756 
" style="fill:none;stroke:#000000;stroke-linecap:square;stroke-linejoin:miter;"/>
   </g>
   <g id="patch_6">
    <path d="M 144 756 
L 144 86.4 
" style="fill:none;stroke:#000000;stroke-linecap:square;stroke-linejoin:miter;"/>
   </g>
   <g id="matplotlib.axis_1">
    <g id="xtick_1">
     <g id="line2d_16">
      <defs>
       <path d="M 0 0 
L 0 -4 
" id="m69fba3917e" style="stroke:#000000;stroke-width:0.5;"/>
      </defs>
      <g>
       <use style="stroke:#000000;stroke-width:0.5;" x="144.0" xlink:href="#m69fba3917e" y="756.0"/>
      </g>
     </g>
     <g id="text_1">
      <!-- 0 -->
      <defs>
       <path d="M 31.78125 66.40625 
Q 24.171875 66.40625 20.328125 58.90625 
Q 16.5 51.421875 16.5 36.375 
Q 16.5 21.390625 20.328125 13.890625 
Q 24.171875 6.390625 31.78125 6.390625 
Q 39.453125 6.390625 43.28125 13.890625 
Q 47.125 21.390625 47.125 36.375 
Q 47.125 51.421875 43.28125 58.90625 
Q 39.453125 66.40625 31.78125 66.40625 
M 31.78125 74.21875 
Q 44.046875 74.21875 50.515625 64.515625 
Q 56.984375 54.828125 56.984375 36.375 
Q 56.984375 17.96875 50.515625 8.265625 
Q 44.046875 -1.421875 31.78125 -1.421875 
Q 19.53125 -1.421875 13.0625 8.265625 
Q 6.59375 17.96875 6.59375 36.375 
Q 6.59375 54.828125 13.0625 64.515625 
Q 19.53125 74.21875 31.78125 74.21875 
" id="BitstreamVeraSans-Roman-30"/>
      </defs>
      <g transform="translate(140.81875 767.5984375)scale(0.1 -0.1)">
       <use xlink:href="#BitstreamVeraSans-Roman-30"/>
      </g>
     </g>
    </g>
    <g id="xtick_2">
     <g id="line2d_17">
      <g>
       <use style="stroke:#000000;stroke-width:0.5;" x="350.666666667" xlink:href="#m69fba3917e" y="756.0"/>
      </g>
     </g>
     <g id="text_2">
      <!-- 50 -->
      <defs>
       <path d="M 10.796875 72.90625 
L 49.515625 72.90625 
L 49.515625 64.59375 
L 19.828125 64.59375 
L 19.828125 46.734375 
Q 21.96875 47.46875 24.109375 47.828125 
Q 26.265625 48.1875 28.421875 48.1875 
Q 40.625 48.1875 47.75 41.5 
Q 54.890625 34.8125 54.890625 23.390625 
Q 54.890625 11.625 47.5625 5.09375 
Q 40.234375 -1.421875 26.90625 -1.421875 
Q 22.3125 -1.421875 17.546875 -0.640625 
Q 12.796875 0.140625 7.71875 1.703125 
L 7.71875 11.625 
Q 12.109375 9.234375 16.796875 8.0625 
Q 21.484375 6.890625 26.703125 6.890625 
Q 35.15625 6.890625 40.078125 11.328125 
Q 45.015625 15.765625 45.015625 23.390625 
Q 45.015625 31 40.078125 35.4375 
Q 35.15625 39.890625 26.703125 39.890625 
Q 22.75 39.890625 18.8125 39.015625 
Q 14.890625 38.140625 10.796875 36.28125 
z
" id="BitstreamVeraSans-Roman-35"/>
      </defs>
      <g transform="translate(344.304166667 767.5984375)scale(0.1 -0.1)">
       <use xlink:href="#BitstreamVeraSans-Roman-35"/>
       <use x="63.623046875" xlink:href="#BitstreamVeraSans-Roman-30"/>
      </g>
     </g>
    </g>
    <g id="xtick_3">
     <g id="line2d_18">
      <g>
       <use style="stroke:#000000;stroke-width:0.5;" x="557.333333333" xlink:href="#m69fba3917e" y="756.0"/>
      </g>
     </g>
     <g id="text_3">
      <!-- 100 -->
      <defs>
       <path d="M 12.40625 8.296875 
L 28.515625 8.296875 
L 28.515625 63.921875 
L 10.984375 60.40625 
L 10.984375 69.390625 
L 28.421875 72.90625 
L 38.28125 72.90625 
L 38.28125 8.296875 
L 54.390625 8.296875 
L 54.390625 0 
L 12.40625 0 
z
" id="BitstreamVeraSans-Roman-31"/>
      </defs>
      <g transform="translate(547.789583333 767.5984375)scale(0.1 -0.1)">
       <use xlink:href="#BitstreamVeraSans-Roman-31"/>
       <use x="63.623046875" xlink:href="#BitstreamVeraSans-Roman-30"/>
       <use x="127.24609375" xlink:href="#BitstreamVeraSans-Roman-30"/>
      </g>
     </g>
    </g>
    <g id="xtick_4">
     <g id="line2d_19">
      <g>
       <use style="stroke:#000000;stroke-width:0.5;" x="764.0" xlink:href="#m69fba3917e" y="756.0"/>
      </g>
     </g>
     <g id="text_4">
      <!-- 150 -->
      <g transform="translate(754.45625 767.5984375)scale(0.1 -0.1)">
       <use xlink:href="#BitstreamVeraSans-Roman-31"/>
       <use x="63.623046875" xlink:href="#BitstreamVeraSans-Roman-35"/>
       <use x="127.24609375" xlink:href="#BitstreamVeraSans-Roman-30"/>
      </g>
     </g>
    </g>
    <g id="xtick_5">
     <g id="line2d_20">
      <g>
       <use style="stroke:#000000;stroke-width:0.5;" x="970.666666667" xlink:href="#m69fba3917e" y="756.0"/>
      </g>
     </g>
     <g id="text_5">
      <!-- 200 -->
      <defs>
       <path d="M 19.1875 8.296875 
L 53.609375 8.296875 
L 53.609375 0 
L 7.328125 0 
L 7.328125 8.296875 
Q 12.9375 14.109375 22.625 23.890625 
Q 32.328125 33.6875 34.8125 36.53125 
Q 39.546875 41.84375 41.421875 45.53125 
Q 43.3125 49.21875 43.3125 52.78125 
Q 43.3125 58.59375 39.234375 62.25 
Q 35.15625 65.921875 28.609375 65.921875 
Q 23.96875 65.921875 18.8125 64.3125 
Q 13.671875 62.703125 7.8125 59.421875 
L 7.8125 69.390625 
Q 13.765625 71.78125 18.9375 73 
Q 24.125 74.21875 28.421875 74.21875 
Q 39.75 74.21875 46.484375 68.546875 
Q 53.21875 62.890625 53.21875 53.421875 
Q 53.21875 48.921875 51.53125 44.890625 
Q 49.859375 40.875 45.40625 35.40625 
Q 44.1875 33.984375 37.640625 27.21875 
Q 31.109375 20.453125 19.1875 8.296875 
" id="BitstreamVeraSans-Roman-32"/>
      </defs>
      <g transform="translate(961.122916667 767.5984375)scale(0.1 -0.1)">
       <use xlink:href="#BitstreamVeraSans-Roman-32"/>
       <use x="63.623046875" xlink:href="#BitstreamVeraSans-Roman-30"/>
       <use x="127.24609375" xlink:href="#BitstreamVeraSans-Roman-30"/>
      </g>
     </g>
    </g>
    <g id="text_6">
     <!-- Time Windows -->
     <defs>
      <path d="M 45.40625 46.390625 
L 45.40625 75.984375 
L 54.390625 75.984375 
L 54.390625 0 
L 45.40625 0 
L 45.40625 8.203125 
Q 42.578125 3.328125 38.25 0.953125 
Q 33.9375 -1.421875 27.875 -1.421875 
Q 17.96875 -1.421875 11.734375 6.484375 
Q 5.515625 14.40625 5.515625 27.296875 
Q 5.515625 40.1875 11.734375 48.09375 
Q 17.96875 56 27.875 56 
Q 33.9375 56 38.25 53.625 
Q 42.578125 51.265625 45.40625 46.390625 
M 14.796875 27.296875 
Q 14.796875 17.390625 18.875 11.75 
Q 22.953125 6.109375 30.078125 6.109375 
Q 37.203125 6.109375 41.296875 11.75 
Q 45.40625 17.390625 45.40625 27.296875 
Q 45.40625 37.203125 41.296875 42.84375 
Q 37.203125 48.484375 30.078125 48.484375 
Q 22.953125 48.484375 18.875 42.84375 
Q 14.796875 37.203125 14.796875 27.296875 
" id="BitstreamVeraSans-Roman-64"/>
      <path id="BitstreamVeraSans-Roman-20"/>
      <path d="M 54.890625 33.015625 
L 54.890625 0 
L 45.90625 0 
L 45.90625 32.71875 
Q 45.90625 40.484375 42.875 44.328125 
Q 39.84375 48.1875 33.796875 48.1875 
Q 26.515625 48.1875 22.3125 43.546875 
Q 18.109375 38.921875 18.109375 30.90625 
L 18.109375 0 
L 9.078125 0 
L 9.078125 54.6875 
L 18.109375 54.6875 
L 18.109375 46.1875 
Q 21.34375 51.125 25.703125 53.5625 
Q 30.078125 56 35.796875 56 
Q 45.21875 56 50.046875 50.171875 
Q 54.890625 44.34375 54.890625 33.015625 
" id="BitstreamVeraSans-Roman-6e"/>
      <path d="M 52 44.1875 
Q 55.375 50.25 60.0625 53.125 
Q 64.75 56 71.09375 56 
Q 79.640625 56 84.28125 50.015625 
Q 88.921875 44.046875 88.921875 33.015625 
L 88.921875 0 
L 79.890625 0 
L 79.890625 32.71875 
Q 79.890625 40.578125 77.09375 44.375 
Q 74.3125 48.1875 68.609375 48.1875 
Q 61.625 48.1875 57.5625 43.546875 
Q 53.515625 38.921875 53.515625 30.90625 
L 53.515625 0 
L 44.484375 0 
L 44.484375 32.71875 
Q 44.484375 40.625 41.703125 44.40625 
Q 38.921875 48.1875 33.109375 48.1875 
Q 26.21875 48.1875 22.15625 43.53125 
Q 18.109375 38.875 18.109375 30.90625 
L 18.109375 0 
L 9.078125 0 
L 9.078125 54.6875 
L 18.109375 54.6875 
L 18.109375 46.1875 
Q 21.1875 51.21875 25.484375 53.609375 
Q 29.78125 56 35.6875 56 
Q 41.65625 56 45.828125 52.96875 
Q 50 49.953125 52 44.1875 
" id="BitstreamVeraSans-Roman-6d"/>
      <path d="M 30.609375 48.390625 
Q 23.390625 48.390625 19.1875 42.75 
Q 14.984375 37.109375 14.984375 27.296875 
Q 14.984375 17.484375 19.15625 11.84375 
Q 23.34375 6.203125 30.609375 6.203125 
Q 37.796875 6.203125 41.984375 11.859375 
Q 46.1875 17.53125 46.1875 27.296875 
Q 46.1875 37.015625 41.984375 42.703125 
Q 37.796875 48.390625 30.609375 48.390625 
M 30.609375 56 
Q 42.328125 56 49.015625 48.375 
Q 55.71875 40.765625 55.71875 27.296875 
Q 55.71875 13.875 49.015625 6.21875 
Q 42.328125 -1.421875 30.609375 -1.421875 
Q 18.84375 -1.421875 12.171875 6.21875 
Q 5.515625 13.875 5.515625 27.296875 
Q 5.515625 40.765625 12.171875 48.375 
Q 18.84375 56 30.609375 56 
" id="BitstreamVeraSans-Roman-6f"/>
      <path d="M 4.203125 54.6875 
L 13.1875 54.6875 
L 24.421875 12.015625 
L 35.59375 54.6875 
L 46.1875 54.6875 
L 57.421875 12.015625 
L 68.609375 54.6875 
L 77.59375 54.6875 
L 63.28125 0 
L 52.6875 0 
L 40.921875 44.828125 
L 29.109375 0 
L 18.5 0 
z
" id="BitstreamVeraSans-Roman-77"/>
      <path d="M 9.421875 54.6875 
L 18.40625 54.6875 
L 18.40625 0 
L 9.421875 0 
z
M 9.421875 75.984375 
L 18.40625 75.984375 
L 18.40625 64.59375 
L 9.421875 64.59375 
z
" id="BitstreamVeraSans-Roman-69"/>
      <path d="M 3.328125 72.90625 
L 13.28125 72.90625 
L 28.609375 11.28125 
L 43.890625 72.90625 
L 54.984375 72.90625 
L 70.3125 11.28125 
L 85.59375 72.90625 
L 95.609375 72.90625 
L 77.296875 0 
L 64.890625 0 
L 49.515625 63.28125 
L 33.984375 0 
L 21.578125 0 
z
" id="BitstreamVeraSans-Roman-57"/>
      <path d="M 56.203125 29.59375 
L 56.203125 25.203125 
L 14.890625 25.203125 
Q 15.484375 15.921875 20.484375 11.0625 
Q 25.484375 6.203125 34.421875 6.203125 
Q 39.59375 6.203125 44.453125 7.46875 
Q 49.3125 8.734375 54.109375 11.28125 
L 54.109375 2.78125 
Q 49.265625 0.734375 44.1875 -0.34375 
Q 39.109375 -1.421875 33.890625 -1.421875 
Q 20.796875 -1.421875 13.15625 6.1875 
Q 5.515625 13.8125 5.515625 26.8125 
Q 5.515625 40.234375 12.765625 48.109375 
Q 20.015625 56 32.328125 56 
Q 43.359375 56 49.78125 48.890625 
Q 56.203125 41.796875 56.203125 29.59375 
M 47.21875 32.234375 
Q 47.125 39.59375 43.09375 43.984375 
Q 39.0625 48.390625 32.421875 48.390625 
Q 24.90625 48.390625 20.390625 44.140625 
Q 15.875 39.890625 15.1875 32.171875 
z
" id="BitstreamVeraSans-Roman-65"/>
      <path d="M -0.296875 72.90625 
L 61.375 72.90625 
L 61.375 64.59375 
L 35.5 64.59375 
L 35.5 0 
L 25.59375 0 
L 25.59375 64.59375 
L -0.296875 64.59375 
z
" id="BitstreamVeraSans-Roman-54"/>
      <path d="M 44.28125 53.078125 
L 44.28125 44.578125 
Q 40.484375 46.53125 36.375 47.5 
Q 32.28125 48.484375 27.875 48.484375 
Q 21.1875 48.484375 17.84375 46.4375 
Q 14.5 44.390625 14.5 40.28125 
Q 14.5 37.15625 16.890625 35.375 
Q 19.28125 33.59375 26.515625 31.984375 
L 29.59375 31.296875 
Q 39.15625 29.25 43.1875 25.515625 
Q 47.21875 21.78125 47.21875 15.09375 
Q 47.21875 7.46875 41.1875 3.015625 
Q 35.15625 -1.421875 24.609375 -1.421875 
Q 20.21875 -1.421875 15.453125 -0.5625 
Q 10.6875 0.296875 5.421875 2 
L 5.421875 11.28125 
Q 10.40625 8.6875 15.234375 7.390625 
Q 20.0625 6.109375 24.8125 6.109375 
Q 31.15625 6.109375 34.5625 8.28125 
Q 37.984375 10.453125 37.984375 14.40625 
Q 37.984375 18.0625 35.515625 20.015625 
Q 33.0625 21.96875 24.703125 23.78125 
L 21.578125 24.515625 
Q 13.234375 26.265625 9.515625 29.90625 
Q 5.8125 33.546875 5.8125 39.890625 
Q 5.8125 47.609375 11.28125 51.796875 
Q 16.75 56 26.8125 56 
Q 31.78125 56 36.171875 55.265625 
Q 40.578125 54.546875 44.28125 53.078125 
" id="BitstreamVeraSans-Roman-73"/>
     </defs>
     <g transform="translate(553.99609375 782.2765625)scale(0.1 -0.1)">
      <use xlink:href="#BitstreamVeraSans-Roman-54"/>
      <use x="61.037109375" xlink:href="#BitstreamVeraSans-Roman-69"/>
      <use x="88.8203125" xlink:href="#BitstreamVeraSans-Roman-6d"/>
      <use x="186.232421875" xlink:href="#BitstreamVeraSans-Roman-65"/>
      <use x="247.755859375" xlink:href="#BitstreamVeraSans-Roman-20"/>
      <use x="279.54296875" xlink:href="#BitstreamVeraSans-Roman-57"/>
      <use x="378.388671875" xlink:href="#BitstreamVeraSans-Roman-69"/>
      <use x="406.171875" xlink:href="#BitstreamVeraSans-Roman-6e"/>
      <use x="469.55078125" xlink:href="#BitstreamVeraSans-Roman-64"/>
      <use x="533.02734375" xlink:href="#BitstreamVeraSans-Roman-6f"/>
      <use x="594.208984375" xlink:href="#BitstreamVeraSans-Roman-77"/>
      <use x="675.99609375" xlink:href="#BitstreamVeraSans-Roman-73"/>
     </g>
    </g>
   </g>
   <g id="matplotlib.axis_2">
    <g id="ytick_1">
     <g id="line2d_21">
      <defs>
       <path d="M 0 0 
L 4 0 
" id="m00a2fd143d" style="stroke:#000000;stroke-width:0.5;"/>
      </defs>
      <g>
       <use style="stroke:#000000;stroke-width:0.5;" x="144.0" xlink:href="#m00a2fd143d" y="714.15"/>
      </g>
     </g>
     <g id="text_7">
      <!-- 0 -->
      <g transform="translate(133.6375 716.909375)scale(0.1 -0.1)">
       <use xlink:href="#BitstreamVeraSans-Roman-30"/>
      </g>
     </g>
    </g>
    <g id="ytick_2">
     <g id="line2d_22">
      <g>
       <use style="stroke:#000000;stroke-width:0.5;" x="144.0" xlink:href="#m00a2fd143d" y="630.45"/>
      </g>
     </g>
     <g id="text_8">
      <!-- 2 -->
      <g transform="translate(133.6375 633.209375)scale(0.1 -0.1)">
       <use xlink:href="#BitstreamVeraSans-Roman-32"/>
      </g>
     </g>
    </g>
    <g id="ytick_3">
     <g id="line2d_23">
      <g>
       <use style="stroke:#000000;stroke-width:0.5;" x="144.0" xlink:href="#m00a2fd143d" y="546.75"/>
      </g>
     </g>
     <g id="text_9">
      <!-- 4 -->
      <defs>
       <path d="M 37.796875 64.3125 
L 12.890625 25.390625 
L 37.796875 25.390625 
z
M 35.203125 72.90625 
L 47.609375 72.90625 
L 47.609375 25.390625 
L 58.015625 25.390625 
L 58.015625 17.1875 
L 47.609375 17.1875 
L 47.609375 0 
L 37.796875 0 
L 37.796875 17.1875 
L 4.890625 17.1875 
L 4.890625 26.703125 
z
" id="BitstreamVeraSans-Roman-34"/>
      </defs>
      <g transform="translate(133.6375 549.509375)scale(0.1 -0.1)">
       <use xlink:href="#BitstreamVeraSans-Roman-34"/>
      </g>
     </g>
    </g>
    <g id="ytick_4">
     <g id="line2d_24">
      <g>
       <use style="stroke:#000000;stroke-width:0.5;" x="144.0" xlink:href="#m00a2fd143d" y="463.05"/>
      </g>
     </g>
     <g id="text_10">
      <!-- 6 -->
      <defs>
       <path d="M 33.015625 40.375 
Q 26.375 40.375 22.484375 35.828125 
Q 18.609375 31.296875 18.609375 23.390625 
Q 18.609375 15.53125 22.484375 10.953125 
Q 26.375 6.390625 33.015625 6.390625 
Q 39.65625 6.390625 43.53125 10.953125 
Q 47.40625 15.53125 47.40625 23.390625 
Q 47.40625 31.296875 43.53125 35.828125 
Q 39.65625 40.375 33.015625 40.375 
M 52.59375 71.296875 
L 52.59375 62.3125 
Q 48.875 64.0625 45.09375 64.984375 
Q 41.3125 65.921875 37.59375 65.921875 
Q 27.828125 65.921875 22.671875 59.328125 
Q 17.53125 52.734375 16.796875 39.40625 
Q 19.671875 43.65625 24.015625 45.921875 
Q 28.375 48.1875 33.59375 48.1875 
Q 44.578125 48.1875 50.953125 41.515625 
Q 57.328125 34.859375 57.328125 23.390625 
Q 57.328125 12.15625 50.6875 5.359375 
Q 44.046875 -1.421875 33.015625 -1.421875 
Q 20.359375 -1.421875 13.671875 8.265625 
Q 6.984375 17.96875 6.984375 36.375 
Q 6.984375 53.65625 15.1875 63.9375 
Q 23.390625 74.21875 37.203125 74.21875 
Q 40.921875 74.21875 44.703125 73.484375 
Q 48.484375 72.75 52.59375 71.296875 
" id="BitstreamVeraSans-Roman-36"/>
      </defs>
      <g transform="translate(133.6375 465.809375)scale(0.1 -0.1)">
       <use xlink:href="#BitstreamVeraSans-Roman-36"/>
      </g>
     </g>
    </g>
    <g id="ytick_5">
     <g id="line2d_25">
      <g>
       <use style="stroke:#000000;stroke-width:0.5;" x="144.0" xlink:href="#m00a2fd143d" y="379.35"/>
      </g>
     </g>
     <g id="text_11">
      <!-- 8 -->
      <defs>
       <path d="M 31.78125 34.625 
Q 24.75 34.625 20.71875 30.859375 
Q 16.703125 27.09375 16.703125 20.515625 
Q 16.703125 13.921875 20.71875 10.15625 
Q 24.75 6.390625 31.78125 6.390625 
Q 38.8125 6.390625 42.859375 10.171875 
Q 46.921875 13.96875 46.921875 20.515625 
Q 46.921875 27.09375 42.890625 30.859375 
Q 38.875 34.625 31.78125 34.625 
M 21.921875 38.8125 
Q 15.578125 40.375 12.03125 44.71875 
Q 8.5 49.078125 8.5 55.328125 
Q 8.5 64.0625 14.71875 69.140625 
Q 20.953125 74.21875 31.78125 74.21875 
Q 42.671875 74.21875 48.875 69.140625 
Q 55.078125 64.0625 55.078125 55.328125 
Q 55.078125 49.078125 51.53125 44.71875 
Q 48 40.375 41.703125 38.8125 
Q 48.828125 37.15625 52.796875 32.3125 
Q 56.78125 27.484375 56.78125 20.515625 
Q 56.78125 9.90625 50.3125 4.234375 
Q 43.84375 -1.421875 31.78125 -1.421875 
Q 19.734375 -1.421875 13.25 4.234375 
Q 6.78125 9.90625 6.78125 20.515625 
Q 6.78125 27.484375 10.78125 32.3125 
Q 14.796875 37.15625 21.921875 38.8125 
M 18.3125 54.390625 
Q 18.3125 48.734375 21.84375 45.5625 
Q 25.390625 42.390625 31.78125 42.390625 
Q 38.140625 42.390625 41.71875 45.5625 
Q 45.3125 48.734375 45.3125 54.390625 
Q 45.3125 60.0625 41.71875 63.234375 
Q 38.140625 66.40625 31.78125 66.40625 
Q 25.390625 66.40625 21.84375 63.234375 
Q 18.3125 60.0625 18.3125 54.390625 
" id="BitstreamVeraSans-Roman-38"/>
      </defs>
      <g transform="translate(133.6375 382.109375)scale(0.1 -0.1)">
       <use xlink:href="#BitstreamVeraSans-Roman-38"/>
      </g>
     </g>
    </g>
    <g id="ytick_6">
     <g id="line2d_26">
      <g>
       <use style="stroke:#000000;stroke-width:0.5;" x="144.0" xlink:href="#m00a2fd143d" y="295.65"/>
      </g>
     </g>
     <g id="text_12">
      <!-- 10 -->
      <g transform="translate(127.275 298.409375)scale(0.1 -0.1)">
       <use xlink:href="#BitstreamVeraSans-Roman-31"/>
       <use x="63.623046875" xlink:href="#BitstreamVeraSans-Roman-30"/>
      </g>
     </g>
    </g>
    <g id="ytick_7">
     <g id="line2d_27">
      <g>
       <use style="stroke:#000000;stroke-width:0.5;" x="144.0" xlink:href="#m00a2fd143d" y="211.95"/>
      </g>
     </g>
     <g id="text_13">
      <!-- 12 -->
      <g transform="translate(127.275 214.709375)scale(0.1 -0.1)">
       <use xlink:href="#BitstreamVeraSans-Roman-31"/>
       <use x="63.623046875" xlink:href="#BitstreamVeraSans-Roman-32"/>
      </g>
     </g>
    </g>
    <g id="ytick_8">
     <g id="line2d_28">
      <g>
       <use style="stroke:#000000;stroke-width:0.5;" x="144.0" xlink:href="#m00a2fd143d" y="128.25"/>
      </g>
     </g>
     <g id="text_14">
      <!-- 14 -->
      <g transform="translate(127.275 131.009375)scale(0.1 -0.1)">
       <use xlink:href="#BitstreamVeraSans-Roman-31"/>
       <use x="63.623046875" xlink:href="#BitstreamVeraSans-Roman-34"/>
      </g>
     </g>
    </g>
    <g id="text_15">
     <!-- Functional Subgraphs -->
     <defs>
      <path d="M 54.890625 33.015625 
L 54.890625 0 
L 45.90625 0 
L 45.90625 32.71875 
Q 45.90625 40.484375 42.875 44.328125 
Q 39.84375 48.1875 33.796875 48.1875 
Q 26.515625 48.1875 22.3125 43.546875 
Q 18.109375 38.921875 18.109375 30.90625 
L 18.109375 0 
L 9.078125 0 
L 9.078125 75.984375 
L 18.109375 75.984375 
L 18.109375 46.1875 
Q 21.34375 51.125 25.703125 53.5625 
Q 30.078125 56 35.796875 56 
Q 45.21875 56 50.046875 50.171875 
Q 54.890625 44.34375 54.890625 33.015625 
" id="BitstreamVeraSans-Roman-68"/>
      <path d="M 41.109375 46.296875 
Q 39.59375 47.171875 37.8125 47.578125 
Q 36.03125 48 33.890625 48 
Q 26.265625 48 22.1875 43.046875 
Q 18.109375 38.09375 18.109375 28.8125 
L 18.109375 0 
L 9.078125 0 
L 9.078125 54.6875 
L 18.109375 54.6875 
L 18.109375 46.1875 
Q 20.953125 51.171875 25.484375 53.578125 
Q 30.03125 56 36.53125 56 
Q 37.453125 56 38.578125 55.875 
Q 39.703125 55.765625 41.0625 55.515625 
z
" id="BitstreamVeraSans-Roman-72"/>
      <path d="M 9.421875 75.984375 
L 18.40625 75.984375 
L 18.40625 0 
L 9.421875 0 
z
" id="BitstreamVeraSans-Roman-6c"/>
      <path d="M 9.8125 72.90625 
L 51.703125 72.90625 
L 51.703125 64.59375 
L 19.671875 64.59375 
L 19.671875 43.109375 
L 48.578125 43.109375 
L 48.578125 34.8125 
L 19.671875 34.8125 
L 19.671875 0 
L 9.8125 0 
z
" id="BitstreamVeraSans-Roman-46"/>
      <path d="M 53.515625 70.515625 
L 53.515625 60.890625 
Q 47.90625 63.578125 42.921875 64.890625 
Q 37.9375 66.21875 33.296875 66.21875 
Q 25.25 66.21875 20.875 63.09375 
Q 16.5 59.96875 16.5 54.203125 
Q 16.5 49.359375 19.40625 46.890625 
Q 22.3125 44.4375 30.421875 42.921875 
L 36.375 41.703125 
Q 47.40625 39.59375 52.65625 34.296875 
Q 57.90625 29 57.90625 20.125 
Q 57.90625 9.515625 50.796875 4.046875 
Q 43.703125 -1.421875 29.984375 -1.421875 
Q 24.8125 -1.421875 18.96875 -0.25 
Q 13.140625 0.921875 6.890625 3.21875 
L 6.890625 13.375 
Q 12.890625 10.015625 18.65625 8.296875 
Q 24.421875 6.59375 29.984375 6.59375 
Q 38.421875 6.59375 43.015625 9.90625 
Q 47.609375 13.234375 47.609375 19.390625 
Q 47.609375 24.75 44.3125 27.78125 
Q 41.015625 30.8125 33.5 32.328125 
L 27.484375 33.5 
Q 16.453125 35.6875 11.515625 40.375 
Q 6.59375 45.0625 6.59375 53.421875 
Q 6.59375 63.09375 13.40625 68.65625 
Q 20.21875 74.21875 32.171875 74.21875 
Q 37.3125 74.21875 42.625 73.28125 
Q 47.953125 72.359375 53.515625 70.515625 
" id="BitstreamVeraSans-Roman-53"/>
      <path d="M 18.109375 8.203125 
L 18.109375 -20.796875 
L 9.078125 -20.796875 
L 9.078125 54.6875 
L 18.109375 54.6875 
L 18.109375 46.390625 
Q 20.953125 51.265625 25.265625 53.625 
Q 29.59375 56 35.59375 56 
Q 45.5625 56 51.78125 48.09375 
Q 58.015625 40.1875 58.015625 27.296875 
Q 58.015625 14.40625 51.78125 6.484375 
Q 45.5625 -1.421875 35.59375 -1.421875 
Q 29.59375 -1.421875 25.265625 0.953125 
Q 20.953125 3.328125 18.109375 8.203125 
M 48.6875 27.296875 
Q 48.6875 37.203125 44.609375 42.84375 
Q 40.53125 48.484375 33.40625 48.484375 
Q 26.265625 48.484375 22.1875 42.84375 
Q 18.109375 37.203125 18.109375 27.296875 
Q 18.109375 17.390625 22.1875 11.75 
Q 26.265625 6.109375 33.40625 6.109375 
Q 40.53125 6.109375 44.609375 11.75 
Q 48.6875 17.390625 48.6875 27.296875 
" id="BitstreamVeraSans-Roman-70"/>
      <path d="M 18.3125 70.21875 
L 18.3125 54.6875 
L 36.8125 54.6875 
L 36.8125 47.703125 
L 18.3125 47.703125 
L 18.3125 18.015625 
Q 18.3125 11.328125 20.140625 9.421875 
Q 21.96875 7.515625 27.59375 7.515625 
L 36.8125 7.515625 
L 36.8125 0 
L 27.59375 0 
Q 17.1875 0 13.234375 3.875 
Q 9.28125 7.765625 9.28125 18.015625 
L 9.28125 47.703125 
L 2.6875 47.703125 
L 2.6875 54.6875 
L 9.28125 54.6875 
L 9.28125 70.21875 
z
" id="BitstreamVeraSans-Roman-74"/>
      <path d="M 8.5 21.578125 
L 8.5 54.6875 
L 17.484375 54.6875 
L 17.484375 21.921875 
Q 17.484375 14.15625 20.5 10.265625 
Q 23.53125 6.390625 29.59375 6.390625 
Q 36.859375 6.390625 41.078125 11.03125 
Q 45.3125 15.671875 45.3125 23.6875 
L 45.3125 54.6875 
L 54.296875 54.6875 
L 54.296875 0 
L 45.3125 0 
L 45.3125 8.40625 
Q 42.046875 3.421875 37.71875 1 
Q 33.40625 -1.421875 27.6875 -1.421875 
Q 18.265625 -1.421875 13.375 4.4375 
Q 8.5 10.296875 8.5 21.578125 
" id="BitstreamVeraSans-Roman-75"/>
      <path d="M 34.28125 27.484375 
Q 23.390625 27.484375 19.1875 25 
Q 14.984375 22.515625 14.984375 16.5 
Q 14.984375 11.71875 18.140625 8.90625 
Q 21.296875 6.109375 26.703125 6.109375 
Q 34.1875 6.109375 38.703125 11.40625 
Q 43.21875 16.703125 43.21875 25.484375 
L 43.21875 27.484375 
z
M 52.203125 31.203125 
L 52.203125 0 
L 43.21875 0 
L 43.21875 8.296875 
Q 40.140625 3.328125 35.546875 0.953125 
Q 30.953125 -1.421875 24.3125 -1.421875 
Q 15.921875 -1.421875 10.953125 3.296875 
Q 6 8.015625 6 15.921875 
Q 6 25.140625 12.171875 29.828125 
Q 18.359375 34.515625 30.609375 34.515625 
L 43.21875 34.515625 
L 43.21875 35.40625 
Q 43.21875 41.609375 39.140625 45 
Q 35.0625 48.390625 27.6875 48.390625 
Q 23 48.390625 18.546875 47.265625 
Q 14.109375 46.140625 10.015625 43.890625 
L 10.015625 52.203125 
Q 14.9375 54.109375 19.578125 55.046875 
Q 24.21875 56 28.609375 56 
Q 40.484375 56 46.34375 49.84375 
Q 52.203125 43.703125 52.203125 31.203125 
" id="BitstreamVeraSans-Roman-61"/>
      <path d="M 45.40625 27.984375 
Q 45.40625 37.75 41.375 43.109375 
Q 37.359375 48.484375 30.078125 48.484375 
Q 22.859375 48.484375 18.828125 43.109375 
Q 14.796875 37.75 14.796875 27.984375 
Q 14.796875 18.265625 18.828125 12.890625 
Q 22.859375 7.515625 30.078125 7.515625 
Q 37.359375 7.515625 41.375 12.890625 
Q 45.40625 18.265625 45.40625 27.984375 
M 54.390625 6.78125 
Q 54.390625 -7.171875 48.1875 -13.984375 
Q 42 -20.796875 29.203125 -20.796875 
Q 24.46875 -20.796875 20.265625 -20.09375 
Q 16.0625 -19.390625 12.109375 -17.921875 
L 12.109375 -9.1875 
Q 16.0625 -11.328125 19.921875 -12.34375 
Q 23.78125 -13.375 27.78125 -13.375 
Q 36.625 -13.375 41.015625 -8.765625 
Q 45.40625 -4.15625 45.40625 5.171875 
L 45.40625 9.625 
Q 42.625 4.78125 38.28125 2.390625 
Q 33.9375 0 27.875 0 
Q 17.828125 0 11.671875 7.65625 
Q 5.515625 15.328125 5.515625 27.984375 
Q 5.515625 40.671875 11.671875 48.328125 
Q 17.828125 56 27.875 56 
Q 33.9375 56 38.28125 53.609375 
Q 42.625 51.21875 45.40625 46.390625 
L 45.40625 54.6875 
L 54.390625 54.6875 
z
" id="BitstreamVeraSans-Roman-67"/>
      <path d="M 48.78125 52.59375 
L 48.78125 44.1875 
Q 44.96875 46.296875 41.140625 47.34375 
Q 37.3125 48.390625 33.40625 48.390625 
Q 24.65625 48.390625 19.8125 42.84375 
Q 14.984375 37.3125 14.984375 27.296875 
Q 14.984375 17.28125 19.8125 11.734375 
Q 24.65625 6.203125 33.40625 6.203125 
Q 37.3125 6.203125 41.140625 7.25 
Q 44.96875 8.296875 48.78125 10.40625 
L 48.78125 2.09375 
Q 45.015625 0.34375 40.984375 -0.53125 
Q 36.96875 -1.421875 32.421875 -1.421875 
Q 20.0625 -1.421875 12.78125 6.34375 
Q 5.515625 14.109375 5.515625 27.296875 
Q 5.515625 40.671875 12.859375 48.328125 
Q 20.21875 56 33.015625 56 
Q 37.15625 56 41.109375 55.140625 
Q 45.0625 54.296875 48.78125 52.59375 
" id="BitstreamVeraSans-Roman-63"/>
      <path d="M 48.6875 27.296875 
Q 48.6875 37.203125 44.609375 42.84375 
Q 40.53125 48.484375 33.40625 48.484375 
Q 26.265625 48.484375 22.1875 42.84375 
Q 18.109375 37.203125 18.109375 27.296875 
Q 18.109375 17.390625 22.1875 11.75 
Q 26.265625 6.109375 33.40625 6.109375 
Q 40.53125 6.109375 44.609375 11.75 
Q 48.6875 17.390625 48.6875 27.296875 
M 18.109375 46.390625 
Q 20.953125 51.265625 25.265625 53.625 
Q 29.59375 56 35.59375 56 
Q 45.5625 56 51.78125 48.09375 
Q 58.015625 40.1875 58.015625 27.296875 
Q 58.015625 14.40625 51.78125 6.484375 
Q 45.5625 -1.421875 35.59375 -1.421875 
Q 29.59375 -1.421875 25.265625 0.953125 
Q 20.953125 3.328125 18.109375 8.203125 
L 18.109375 0 
L 9.078125 0 
L 9.078125 75.984375 
L 18.109375 75.984375 
z
" id="BitstreamVeraSans-Roman-62"/>
     </defs>
     <g transform="translate(120.1953125 475.53671875)rotate(-90.0)scale(0.1 -0.1)">
      <use xlink:href="#BitstreamVeraSans-Roman-46"/>
      <use x="57.44140625" xlink:href="#BitstreamVeraSans-Roman-75"/>
      <use x="120.8203125" xlink:href="#BitstreamVeraSans-Roman-6e"/>
      <use x="184.19921875" xlink:href="#BitstreamVeraSans-Roman-63"/>
      <use x="239.1796875" xlink:href="#BitstreamVeraSans-Roman-74"/>
      <use x="278.388671875" xlink:href="#BitstreamVeraSans-Roman-69"/>
      <use x="306.171875" xlink:href="#BitstreamVeraSans-Roman-6f"/>
      <use x="367.353515625" xlink:href="#BitstreamVeraSans-Roman-6e"/>
      <use x="430.732421875" xlink:href="#BitstreamVeraSans-Roman-61"/>
      <use x="492.01171875" xlink:href="#BitstreamVeraSans-Roman-6c"/>
      <use x="519.794921875" xlink:href="#BitstreamVeraSans-Roman-20"/>
      <use x="551.58203125" xlink:href="#BitstreamVeraSans-Roman-53"/>
      <use x="615.05859375" xlink:href="#BitstreamVeraSans-Roman-75"/>
      <use x="678.4375" xlink:href="#BitstreamVeraSans-Roman-62"/>
      <use x="741.9140625" xlink:href="#BitstreamVeraSans-Roman-67"/>
      <use x="805.390625" xlink:href="#BitstreamVeraSans-Roman-72"/>
      <use x="846.50390625" xlink:href="#BitstreamVeraSans-Roman-61"/>
      <use x="907.783203125" xlink:href="#BitstreamVeraSans-Roman-70"/>
      <use x="971.259765625" xlink:href="#BitstreamVeraSans-Roman-68"/>
      <use x="1034.63867188" xlink:href="#BitstreamVeraSans-Roman-73"/>
     </g>
    </g>
   </g>
  </g>
 </g>
 <defs>
  <clipPath id="pc204646d11">
   <rect height="669.6" width="892.8" x="144.0" y="86.4"/>
  </clipPath>
 </defs>
</svg>
